<?xml version="1.0" encoding="UTF-8" standalone="no"?><!DOCTYPE svg PUBLIC "-//W3C//DTD SVG 1.1//EN" "http://www.w3.org/Graphics/SVG/1.1/DTD/svg11.dtd"><svg width="100%" height="100%" viewBox="0 0 736 229" version="1.1" xmlns="http://www.w3.org/2000/svg" xmlns:xlink="http://www.w3.org/1999/xlink" xml:space="preserve" xmlns:serif="http://www.serif.com/" style="fill-rule:evenodd;clip-rule:evenodd;stroke-linejoin:round;stroke-miterlimit:2;"><g><path d="M191.762,14.308c0,-5.331 -4.327,-9.658 -9.658,-9.658l-168.164,0c-5.33,0 -9.658,4.327 -9.658,9.658l0,167.475c0,5.33 4.328,9.658 9.658,9.658l168.164,-0c5.331,-0 9.658,-4.328 9.658,-9.658l0,-167.475Z" style="fill:#ebebeb;"/><path d="M193.058,14.308c-0,-6.046 -4.909,-10.954 -10.954,-10.954l-168.164,-0c-6.045,-0 -10.953,4.908 -10.953,10.954l-0,167.475c-0,6.046 4.908,10.954 10.953,10.954l168.164,-0c6.045,-0 10.954,-4.908 10.954,-10.954l-0,-167.475Zm-1.296,0c0,-5.331 -4.327,-9.658 -9.658,-9.658l-168.164,0c-5.33,0 -9.658,4.327 -9.658,9.658l0,167.475c0,5.33 4.328,9.658 9.658,9.658l168.164,-0c5.331,-0 9.658,-4.328 9.658,-9.658l0,-167.475Z"/><rect x="4.282" y="33.851" width="187.48" height="0.037" style="fill:#ddd;"/><path d="M191.762,33.888l-187.48,0l0,0.74l-0.777,-0.776l-0,0.035l0.777,0.778l187.48,0l0.034,-0.026c0.148,-0.123 0.743,-0.623 0.743,-0.787c0,-0.707 -0.777,0.776 -0.777,0.776l0,-0.74Zm-187.48,-0.815l0,0.778l187.48,-0l0,-0.778l-187.48,0Z"/><path d="M21.545,17.152l2.809,-5.997l3.113,-0l-4.464,8.123l4.57,8.306l-3.082,0l-2.9,-6.15l-2.916,6.15l-3.097,0l4.57,-8.306l-4.449,-8.123l3.082,-0l2.764,5.997Z" style="fill-rule:nonzero;"/></g><g><path d="M210.42,25.503c0,-5.331 -4.327,-9.658 -9.658,-9.658l-168.164,-0c-5.33,-0 -9.658,4.327 -9.658,9.658l0,167.475c0,5.33 4.328,9.658 9.658,9.658l168.164,-0c5.331,-0 9.658,-4.328 9.658,-9.658l0,-167.475Z" style="fill:#ebebeb;"/><path d="M211.716,25.503c-0,-6.046 -4.909,-10.954 -10.954,-10.954l-168.164,-0c-6.045,-0 -10.953,4.908 -10.953,10.954l-0,167.475c-0,6.045 4.908,10.954 10.953,10.954l168.164,-0c6.045,-0 10.954,-4.909 10.954,-10.954l-0,-167.475Zm-1.296,0c0,-5.331 -4.327,-9.658 -9.658,-9.658l-168.164,-0c-5.33,-0 -9.658,4.327 -9.658,9.658l0,167.475c0,5.33 4.328,9.658 9.658,9.658l168.164,-0c5.331,-0 9.658,-4.328 9.658,-9.658l0,-167.475Z"/><rect x="22.94" y="45.046" width="187.48" height="0.037" style="fill:#ddd;"/><path d="M210.42,45.046l0,-0.778l-187.48,0l0,1.555l-0.777,-0.776l-0,0.035c-0,0.711 0.777,0.778 0.777,0.778l187.48,0c0,0 0.778,-0.625 0.778,-0.813c-0,-0.707 -0.778,0.776 -0.778,0.776l0,-0.74l-187.48,-0l0,-0.037l187.48,-0Z"/><path d="M40.203,28.347l2.809,-5.997l3.113,-0l-4.464,8.123l4.57,8.306l-3.082,-0l-2.9,-6.15l-2.916,6.15l-3.097,-0l4.571,-8.306l-4.45,-8.123l3.083,-0l2.763,5.997Z" style="fill-rule:nonzero;"/></g><g><path d="M230.944,36.698c0,-5.331 -4.327,-9.658 -9.658,-9.658l-168.164,-0c-5.33,-0 -9.658,4.327 -9.658,9.658l0,167.475c0,5.33 4.328,9.658 9.658,9.658l168.164,-0c5.331,-0 9.658,-4.328 9.658,-9.658l0,-167.475Z" style="fill:#ebebeb;"/><path d="M232.24,36.698c-0,-6.046 -4.909,-10.954 -10.954,-10.954l-168.164,-0c-6.045,-0 -10.953,4.908 -10.953,10.954l-0,167.475c-0,6.045 4.908,10.954 10.953,10.954l168.164,-0c6.045,-0 10.954,-4.909 10.954,-10.954l-0,-167.475Zm-1.296,-0c0,-5.331 -4.327,-9.658 -9.658,-9.658l-168.164,-0c-5.33,-0 -9.658,4.327 -9.658,9.658l0,167.475c0,5.33 4.328,9.658 9.658,9.658l168.164,-0c5.331,-0 9.658,-4.328 9.658,-9.658l0,-167.475Z"/><rect x="43.464" y="56.241" width="187.48" height="0.037" style="fill:#ddd;"/><path d="M230.944,57.018l0,-1.555l-187.48,0l0,1.555l-0.777,-0.776l-0,0.035c-0,0.71 0.777,0.778 0.777,0.778l187.48,0c0,0 0.778,-0.625 0.778,-0.813c-0,-0.707 -0.778,0.776 -0.778,0.776Zm0,-0.777l-187.48,-0l0,0.037l187.48,-0l0,-0.037Z"/><path d="M60.727,39.542l2.809,-5.997l3.113,-0l-4.464,8.123l4.57,8.306l-3.082,-0l-2.9,-6.15l-2.916,6.15l-3.097,-0l4.571,-8.306l-4.45,-8.123l3.083,-0l2.763,5.997Z" style="fill-rule:nonzero;"/></g><g><path d="M251.468,47.893c0,-5.331 -4.327,-9.658 -9.658,-9.658l-168.164,-0c-5.33,-0 -9.658,4.327 -9.658,9.658l0,167.474c0,5.331 4.328,9.659 9.658,9.659l168.164,-0c5.331,-0 9.658,-4.328 9.658,-9.659l0,-167.474Z" style="fill:#ebebeb;"/><path d="M252.764,47.893c-0,-6.046 -4.909,-10.954 -10.954,-10.954l-168.164,-0c-6.045,-0 -10.953,4.908 -10.953,10.954l-0,167.474c-0,6.046 4.908,10.955 10.953,10.955l168.164,-0c6.045,-0 10.954,-4.909 10.954,-10.955l-0,-167.474Zm-1.296,-0c0,-5.331 -4.327,-9.658 -9.658,-9.658l-168.164,-0c-5.33,-0 -9.658,4.327 -9.658,9.658l0,167.474c0,5.331 4.328,9.659 9.658,9.659l168.164,-0c5.331,-0 9.658,-4.328 9.658,-9.659l0,-167.474Z"/><rect x="63.988" y="67.435" width="187.48" height="0.037" style="fill:#ddd;"/><path d="M251.468,67.435l0,-0.777l-187.48,-0l0,1.555l-0.777,-0.776l0.777,0.813l187.48,0c0,0 0.778,-0.626 0.778,-0.813c-0,-0.707 -0.778,0.776 -0.778,0.776l0,-0.74l-187.48,-0l0,-0.038l187.48,0Z"/><path d="M81.251,50.737l2.809,-5.997l3.113,-0l-4.464,8.123l4.57,8.306l-3.082,-0l-2.9,-6.15l-2.916,6.15l-3.097,-0l4.571,-8.306l-4.45,-8.123l3.083,-0l2.763,5.997Z" style="fill-rule:nonzero;"/></g><g><path d="M273.858,36.698c0,-5.331 -4.327,-9.658 -9.658,-9.658l-168.164,-0c-5.33,-0 -9.658,4.327 -9.658,9.658l0,167.475c0,5.33 4.328,9.658 9.658,9.658l168.164,-0c5.331,-0 9.658,-4.328 9.658,-9.658l0,-167.475Z" style="fill:#ebebeb;"/><path d="M275.154,36.698c-0,-6.046 -4.909,-10.954 -10.954,-10.954l-168.164,-0c-6.045,-0 -10.953,4.908 -10.953,10.954l-0,167.475c-0,6.045 4.908,10.954 10.953,10.954l168.164,-0c6.045,-0 10.954,-4.909 10.954,-10.954l-0,-167.475Zm-1.296,-0c0,-5.331 -4.327,-9.658 -9.658,-9.658l-168.164,-0c-5.33,-0 -9.658,4.327 -9.658,9.658l0,167.475c0,5.33 4.328,9.658 9.658,9.658l168.164,-0c5.331,-0 9.658,-4.328 9.658,-9.658l0,-167.475Z"/><rect x="86.378" y="56.241" width="187.48" height="0.037" style="fill:#ddd;"/><path d="M273.858,57.018l0,-1.555l-187.48,0l0,1.555l-0.777,-0.776l-0,0.035c-0,0.71 0.777,0.778 0.777,0.778l187.48,0c0,0 0.777,-0.625 0.777,-0.813c0,-0.707 -0.777,0.776 -0.777,0.776Zm0,-0.777l-187.48,-0l0,0.037l187.48,-0l0,-0.037Z"/><path d="M103.641,39.542l2.809,-5.997l3.113,-0l-4.464,8.123l4.57,8.306l-3.082,-0l-2.9,-6.15l-2.916,6.15l-3.097,-0l4.57,-8.306l-4.449,-8.123l3.082,-0l2.764,5.997Z" style="fill-rule:nonzero;"/></g><g><path d="M296.248,25.503c-0,-5.331 -4.328,-9.658 -9.658,-9.658l-168.164,-0c-5.331,-0 -9.658,4.327 -9.658,9.658l-0,167.475c-0,5.33 4.327,9.658 9.658,9.658l168.164,-0c5.33,-0 9.658,-4.328 9.658,-9.658l-0,-167.475Z" style="fill:#ebebeb;"/><path d="M297.543,25.503c0,-6.046 -4.908,-10.954 -10.953,-10.954l-168.164,-0c-6.045,-0 -10.954,4.908 -10.954,10.954l0,167.475c0,6.045 4.909,10.954 10.954,10.954l168.164,-0c6.045,-0 10.953,-4.909 10.953,-10.954l0,-167.475Zm-1.295,0c-0,-5.331 -4.328,-9.658 -9.658,-9.658l-168.164,-0c-5.331,-0 -9.658,4.327 -9.658,9.658l-0,167.475c-0,5.33 4.327,9.658 9.658,9.658l168.164,-0c5.33,-0 9.658,-4.328 9.658,-9.658l-0,-167.475Z"/><rect x="108.768" y="45.046" width="187.48" height="0.037" style="fill:#ddd;"/><path d="M296.248,45.046l-0,-0.778l-187.48,0l-0,1.555l-0.777,-0.776l-0,0.035l0.777,0.778l187.48,0c-0,0 0.777,-0.625 0.777,-0.813c0,-0.707 -0.777,0.776 -0.777,0.776l-0,-0.74l-187.48,-0l-0,-0.037l187.48,-0Z"/><path d="M126.031,28.347l2.809,-5.997l3.113,-0l-4.465,8.123l4.571,8.306l-3.082,-0l-2.9,-6.15l-2.916,6.15l-3.097,-0l4.57,-8.306l-4.449,-8.123l3.082,-0l2.764,5.997Z" style="fill-rule:nonzero;"/></g><g><path d="M318.638,14.308c-0,-5.331 -4.328,-9.658 -9.658,-9.658l-168.164,0c-5.331,0 -9.658,4.327 -9.658,9.658l-0,167.475c-0,5.33 4.327,9.658 9.658,9.658l168.164,-0c5.33,-0 9.658,-4.328 9.658,-9.658l-0,-167.475Z" style="fill:#ebebeb;"/><path d="M319.933,14.308c0,-6.046 -4.908,-10.954 -10.953,-10.954l-168.164,-0c-6.045,-0 -10.954,4.908 -10.954,10.954l0,167.475c0,6.046 4.909,10.954 10.954,10.954l168.164,-0c6.045,-0 10.953,-4.908 10.953,-10.954l0,-167.475Zm-1.295,0c-0,-5.331 -4.328,-9.658 -9.658,-9.658l-168.164,0c-5.331,0 -9.658,4.327 -9.658,9.658l-0,167.475c-0,5.33 4.327,9.658 9.658,9.658l168.164,-0c5.33,-0 9.658,-4.328 9.658,-9.658l-0,-167.475Z"/><rect x="131.158" y="33.851" width="187.48" height="0.037" style="fill:#ddd;"/><path d="M318.638,33.888l-187.48,0l-0,0.74l-0.778,-0.776l0.778,0.813l187.48,0l0.033,-0.026c0.149,-0.123 0.744,-0.623 0.744,-0.787c0,-0.707 -0.777,0.776 -0.777,0.776l-0,-0.74Zm-187.48,-0.815l-0,0.778l187.48,-0l-0,-0.778l-187.48,0Z"/><path d="M148.421,17.152l2.809,-5.997l3.112,-0l-4.464,8.123l4.571,8.306l-3.083,0l-2.9,-6.15l-2.915,6.15l-3.098,0l4.571,-8.306l-4.449,-8.123l3.082,-0l2.764,5.997Z" style="fill-rule:nonzero;"/></g><g><path d="M335.43,25.503c0,-5.331 -4.327,-9.658 -9.658,-9.658l-168.164,-0c-5.33,-0 -9.658,4.327 -9.658,9.658l0,167.475c0,5.33 4.328,9.658 9.658,9.658l168.164,-0c5.331,-0 9.658,-4.328 9.658,-9.658l0,-167.475Z" style="fill:#ebebeb;"/><path d="M336.726,25.503c-0,-6.046 -4.909,-10.954 -10.954,-10.954l-168.164,-0c-6.045,-0 -10.953,4.908 -10.953,10.954l-0,167.475c-0,6.045 4.908,10.954 10.953,10.954l168.164,-0c6.045,-0 10.954,-4.909 10.954,-10.954l-0,-167.475Zm-1.296,0c0,-5.331 -4.327,-9.658 -9.658,-9.658l-168.164,-0c-5.33,-0 -9.658,4.327 -9.658,9.658l0,167.475c0,5.33 4.328,9.658 9.658,9.658l168.164,-0c5.331,-0 9.658,-4.328 9.658,-9.658l0,-167.475Z"/><rect x="147.95" y="45.046" width="187.48" height="0.037" style="fill:#ddd;"/><path d="M335.43,45.046l0,-0.778l-187.48,0l0,1.555l-0.777,-0.776l-0,0.035c-0,0.711 0.777,0.778 0.777,0.778l187.48,0c0,0 0.777,-0.625 0.777,-0.813c0,-0.707 -0.777,0.776 -0.777,0.776l0,-0.74l-187.48,-0l0,-0.037l187.48,-0Z"/><path d="M165.213,28.347l2.809,-5.997l3.113,-0l-4.464,8.123l4.57,8.306l-3.082,-0l-2.9,-6.15l-2.916,6.15l-3.097,-0l4.57,-8.306l-4.449,-8.123l3.082,-0l2.764,5.997Z" style="fill-rule:nonzero;"/></g><g><path d="M350.357,38.564c-0,-5.331 -4.328,-9.658 -9.659,-9.658l-168.163,-0c-5.331,-0 -9.658,4.327 -9.658,9.658l-0,167.474c-0,5.331 4.327,9.658 9.658,9.658l168.163,0c5.331,0 9.659,-4.327 9.659,-9.658l-0,-167.474Z" style="fill:#ebebeb;"/><path d="M351.652,38.564c0,-6.046 -4.908,-10.954 -10.954,-10.954l-168.163,-0c-6.045,-0 -10.954,4.908 -10.954,10.954l0,167.474c0,6.046 4.909,10.955 10.954,10.955l168.163,-0c6.046,-0 10.954,-4.909 10.954,-10.955l0,-167.474Zm-1.295,-0c-0,-5.331 -4.328,-9.658 -9.659,-9.658l-168.163,-0c-5.331,-0 -9.658,4.327 -9.658,9.658l-0,167.474c-0,5.331 4.327,9.658 9.658,9.658l168.163,0c5.331,0 9.659,-4.327 9.659,-9.658l-0,-167.474Z"/><rect x="162.877" y="58.106" width="187.48" height="0.037" style="fill:#ddd;"/><path d="M162.877,57.329l-0,1.555l-0.778,-0.776l0,0.035c0,0.71 0.778,0.778 0.778,0.778l187.48,0c-0,0 0.777,-0.626 0.777,-0.813c-0,-0.707 -0.777,0.776 -0.777,0.776l-0,-1.555l-187.48,-0Zm187.48,0.777l-187.48,0l-0,0.038l187.48,-0l-0,-0.038Z"/><path d="M180.14,41.408l2.809,-5.997l3.112,-0l-4.464,8.123l4.571,8.306l-3.083,-0l-2.9,-6.15l-2.915,6.15l-3.098,-0l4.571,-8.306l-4.449,-8.123l3.082,-0l2.764,5.997Z" style="fill-rule:nonzero;"/></g><g><path d="M367.149,47.893c-0,-5.331 -4.328,-9.658 -9.658,-9.658l-168.164,-0c-5.331,-0 -9.658,4.327 -9.658,9.658l0,167.474c0,5.331 4.327,9.659 9.658,9.659l168.164,-0c5.33,-0 9.658,-4.328 9.658,-9.659l-0,-167.474Z" style="fill:#ebebeb;"/><path d="M368.444,47.893c0,-6.046 -4.908,-10.954 -10.953,-10.954l-168.164,-0c-6.045,-0 -10.953,4.908 -10.953,10.954l-0,167.474c-0,6.046 4.908,10.955 10.953,10.955l168.164,-0c6.045,-0 10.953,-4.909 10.953,-10.955l0,-167.474Zm-1.295,-0c-0,-5.331 -4.328,-9.658 -9.658,-9.658l-168.164,-0c-5.331,-0 -9.658,4.327 -9.658,9.658l0,167.474c0,5.331 4.327,9.659 9.658,9.659l168.164,-0c5.33,-0 9.658,-4.328 9.658,-9.659l-0,-167.474Z"/><rect x="179.669" y="67.435" width="187.48" height="0.037" style="fill:#ddd;"/><path d="M367.149,67.435l-0,-0.777l-187.48,-0l0,1.555l-0.777,-0.776l-0,0.035c-0,0.71 0.777,0.778 0.777,0.778l187.48,0c-0,0 0.777,-0.626 0.777,-0.813c0,-0.707 -0.777,0.776 -0.777,0.776l-0,-0.74l-187.48,-0l0,-0.038l187.48,0Z"/><path d="M196.932,50.737l2.809,-5.997l3.113,-0l-4.465,8.123l4.571,8.306l-3.082,-0l-2.9,-6.15l-2.916,6.15l-3.097,-0l4.57,-8.306l-4.449,-8.123l3.082,-0l2.764,5.997Z" style="fill-rule:nonzero;"/></g><g><path d="M387.673,38.564c-0,-5.331 -4.328,-9.658 -9.658,-9.658l-168.164,-0c-5.331,-0 -9.658,4.327 -9.658,9.658l0,167.474c0,5.331 4.327,9.658 9.658,9.658l168.164,0c5.33,0 9.658,-4.327 9.658,-9.658l-0,-167.474Z" style="fill:#ebebeb;"/><path d="M388.968,38.564c0,-6.046 -4.908,-10.954 -10.953,-10.954l-168.164,-0c-6.045,-0 -10.953,4.908 -10.953,10.954l-0,167.474c-0,6.046 4.908,10.955 10.953,10.955l168.164,-0c6.045,-0 10.953,-4.909 10.953,-10.955l0,-167.474Zm-1.295,-0c-0,-5.331 -4.328,-9.658 -9.658,-9.658l-168.164,-0c-5.331,-0 -9.658,4.327 -9.658,9.658l0,167.474c0,5.331 4.327,9.658 9.658,9.658l168.164,0c5.33,0 9.658,-4.327 9.658,-9.658l-0,-167.474Z"/><rect x="200.193" y="58.106" width="187.48" height="0.037" style="fill:#ddd;"/><path d="M200.193,57.329l0,1.555l-0.777,-0.776l-0,0.035c-0,0.71 0.777,0.778 0.777,0.778l187.48,0c-0,0 0.777,-0.626 0.777,-0.813c0,-0.707 -0.777,0.776 -0.777,0.776l-0,-1.555l-187.48,-0Zm187.48,0.777l-187.48,0l0,0.038l187.48,-0l-0,-0.038Z"/><path d="M217.456,41.408l2.809,-5.997l3.113,-0l-4.465,8.123l4.571,8.306l-3.082,-0l-2.9,-6.15l-2.916,6.15l-3.097,-0l4.57,-8.306l-4.449,-8.123l3.082,-0l2.764,5.997Z" style="fill-rule:nonzero;"/></g><g><path d="M408.197,25.503c-0,-5.331 -4.328,-9.658 -9.658,-9.658l-168.164,-0c-5.331,-0 -9.658,4.327 -9.658,9.658l0,167.475c0,5.33 4.327,9.658 9.658,9.658l168.164,-0c5.33,-0 9.658,-4.328 9.658,-9.658l-0,-167.475Z" style="fill:#ebebeb;"/><path d="M409.492,25.503c0,-6.046 -4.908,-10.954 -10.953,-10.954l-168.164,-0c-6.045,-0 -10.953,4.908 -10.953,10.954l-0,167.475c-0,6.045 4.908,10.954 10.953,10.954l168.164,-0c6.045,-0 10.953,-4.909 10.953,-10.954l0,-167.475Zm-1.295,0c-0,-5.331 -4.328,-9.658 -9.658,-9.658l-168.164,-0c-5.331,-0 -9.658,4.327 -9.658,9.658l0,167.475c0,5.33 4.327,9.658 9.658,9.658l168.164,-0c5.33,-0 9.658,-4.328 9.658,-9.658l-0,-167.475Z"/><rect x="220.717" y="45.046" width="187.48" height="0.037" style="fill:#ddd;"/><path d="M408.197,45.046l-0,-0.778l-187.48,0l0,1.555l-0.777,-0.776l-0,0.035l0.777,0.778l187.48,0c-0,0 0.777,-0.625 0.777,-0.813c0,-0.707 -0.777,0.776 -0.777,0.776l-0,-0.74l-187.48,-0l0,-0.037l187.48,-0Z"/><path d="M237.98,28.347l2.809,-5.997l3.113,-0l-4.465,8.123l4.571,8.306l-3.082,-0l-2.9,-6.15l-2.916,6.15l-3.097,-0l4.57,-8.306l-4.449,-8.123l3.082,-0l2.764,5.997Z" style="fill-rule:nonzero;"/></g><g><path d="M428.721,14.308c-0,-5.331 -4.328,-9.658 -9.658,-9.658l-168.164,0c-5.331,0 -9.658,4.327 -9.658,9.658l0,167.475c0,5.33 4.327,9.658 9.658,9.658l168.164,-0c5.33,-0 9.658,-4.328 9.658,-9.658l-0,-167.475Z" style="fill:#ebebeb;"/><path d="M430.016,14.308c0,-6.046 -4.908,-10.954 -10.953,-10.954l-168.164,-0c-6.045,-0 -10.953,4.908 -10.953,10.954l-0,167.475c-0,6.046 4.908,10.954 10.953,10.954l168.164,-0c6.045,-0 10.953,-4.908 10.953,-10.954l0,-167.475Zm-1.295,0c-0,-5.331 -4.328,-9.658 -9.658,-9.658l-168.164,0c-5.331,0 -9.658,4.327 -9.658,9.658l0,167.475c0,5.33 4.327,9.658 9.658,9.658l168.164,-0c5.33,-0 9.658,-4.328 9.658,-9.658l-0,-167.475Z"/><rect x="241.241" y="33.851" width="187.48" height="0.037" style="fill:#ddd;"/><path d="M428.721,33.888l-187.48,0l0,0.74l-0.777,-0.776l0.777,0.813l187.48,0l0.034,-0.026c0.148,-0.123 0.743,-0.623 0.743,-0.787c0,-0.707 -0.777,0.776 -0.777,0.776l-0,-0.74Zm-187.48,-0.815l0,0.778l187.48,-0l-0,-0.778l-187.48,0Z"/><path d="M258.504,17.152l2.809,-5.997l3.113,-0l-4.465,8.123l4.571,8.306l-3.082,0l-2.9,-6.15l-2.916,6.15l-3.097,0l4.57,-8.306l-4.449,-8.123l3.082,-0l2.764,5.997Z" style="fill-rule:nonzero;"/></g><g><path d="M449.245,25.503c-0,-5.331 -4.328,-9.658 -9.658,-9.658l-168.164,-0c-5.331,-0 -9.658,4.327 -9.658,9.658l0,167.475c0,5.33 4.327,9.658 9.658,9.658l168.164,-0c5.33,-0 9.658,-4.328 9.658,-9.658l-0,-167.475Z" style="fill:#ebebeb;"/><path d="M450.54,25.503c0,-6.046 -4.908,-10.954 -10.953,-10.954l-168.164,-0c-6.045,-0 -10.953,4.908 -10.953,10.954l-0,167.475c-0,6.045 4.908,10.954 10.953,10.954l168.164,-0c6.045,-0 10.953,-4.909 10.953,-10.954l0,-167.475Zm-1.295,0c-0,-5.331 -4.328,-9.658 -9.658,-9.658l-168.164,-0c-5.331,-0 -9.658,4.327 -9.658,9.658l0,167.475c0,5.33 4.327,9.658 9.658,9.658l168.164,-0c5.33,-0 9.658,-4.328 9.658,-9.658l-0,-167.475Z"/><rect x="261.765" y="45.046" width="187.48" height="0.037" style="fill:#ddd;"/><path d="M449.245,45.046l-0,-0.778l-187.48,0l0,1.555l-0.777,-0.776l0.777,0.813l187.48,0c-0,0 0.777,-0.625 0.777,-0.813c0,-0.707 -0.777,0.776 -0.777,0.776l-0,-0.74l-187.48,-0l0,-0.037l187.48,-0Z"/><path d="M279.028,28.347l2.809,-5.997l3.113,-0l-4.465,8.123l4.571,8.306l-3.082,-0l-2.9,-6.15l-2.916,6.15l-3.097,-0l4.57,-8.306l-4.449,-8.123l3.082,-0l2.764,5.997Z" style="fill-rule:nonzero;"/></g><g><path d="M467.903,38.564c0,-5.331 -4.327,-9.658 -9.658,-9.658l-168.164,-0c-5.33,-0 -9.658,4.327 -9.658,9.658l0,167.474c0,5.331 4.328,9.658 9.658,9.658l168.164,0c5.331,0 9.658,-4.327 9.658,-9.658l0,-167.474Z" style="fill:#ebebeb;"/><path d="M469.199,38.564c-0,-6.046 -4.909,-10.954 -10.954,-10.954l-168.164,-0c-6.045,-0 -10.953,4.908 -10.953,10.954l-0,167.474c-0,6.046 4.908,10.955 10.953,10.955l168.164,-0c6.045,-0 10.954,-4.909 10.954,-10.955l-0,-167.474Zm-1.296,-0c0,-5.331 -4.327,-9.658 -9.658,-9.658l-168.164,-0c-5.33,-0 -9.658,4.327 -9.658,9.658l0,167.474c0,5.331 4.328,9.658 9.658,9.658l168.164,0c5.331,0 9.658,-4.327 9.658,-9.658l0,-167.474Z"/><rect x="280.423" y="58.106" width="187.48" height="0.037" style="fill:#ddd;"/><path d="M280.423,57.329l0,1.555l-0.777,-0.776l-0,0.035l0.777,0.778l187.48,0c0,0 0.778,-0.626 0.778,-0.813c-0,-0.707 -0.778,0.776 -0.778,0.776l0,-1.555l-187.48,-0Zm187.48,0.777l-187.48,0l0,0.038l187.48,-0l0,-0.038Z"/><path d="M297.686,41.408l2.809,-5.997l3.113,-0l-4.464,8.123l4.57,8.306l-3.082,-0l-2.9,-6.15l-2.916,6.15l-3.097,-0l4.571,-8.306l-4.45,-8.123l3.082,-0l2.764,5.997Z" style="fill-rule:nonzero;"/></g><g><path d="M484.695,47.893c0,-5.331 -4.327,-9.658 -9.658,-9.658l-168.163,-0c-5.331,-0 -9.658,4.327 -9.658,9.658l-0,167.474c-0,5.331 4.327,9.659 9.658,9.659l168.163,-0c5.331,-0 9.658,-4.328 9.658,-9.659l0,-167.474Z" style="fill:#ebebeb;"/><path d="M485.991,47.893c-0,-6.046 -4.908,-10.954 -10.954,-10.954l-168.163,-0c-6.046,-0 -10.954,4.908 -10.954,10.954l0,167.474c0,6.046 4.908,10.955 10.954,10.955l168.163,-0c6.046,-0 10.954,-4.909 10.954,-10.955l-0,-167.474Zm-1.296,-0c0,-5.331 -4.327,-9.658 -9.658,-9.658l-168.163,-0c-5.331,-0 -9.658,4.327 -9.658,9.658l-0,167.474c-0,5.331 4.327,9.659 9.658,9.659l168.163,-0c5.331,-0 9.658,-4.328 9.658,-9.659l0,-167.474Z"/><rect x="297.216" y="67.435" width="187.48" height="0.037" style="fill:#ddd;"/><path d="M484.695,67.435l0,-0.777l-187.479,-0l-0,1.555l-0.778,-0.776l0,0.035c0,0.71 0.778,0.778 0.778,0.778l187.479,0c0,0 0.778,-0.626 0.778,-0.813c-0,-0.707 -0.778,0.776 -0.778,0.776l0,-0.74l-187.479,-0l-0,-0.038l187.479,0Z"/><path d="M314.479,50.737l2.808,-5.997l3.113,-0l-4.464,8.123l4.571,8.306l-3.083,-0l-2.9,-6.15l-2.916,6.15l-3.097,-0l4.571,-8.306l-4.449,-8.123l3.082,-0l2.764,5.997Z" style="fill-rule:nonzero;"/></g><g><path d="M507.085,38.564c0,-5.331 -4.327,-9.658 -9.658,-9.658l-168.164,-0c-5.33,-0 -9.658,4.327 -9.658,9.658l0,167.474c0,5.331 4.328,9.658 9.658,9.658l168.164,0c5.331,0 9.658,-4.327 9.658,-9.658l0,-167.474Z" style="fill:#ebebeb;"/><path d="M508.381,38.564c-0,-6.046 -4.909,-10.954 -10.954,-10.954l-168.164,-0c-6.045,-0 -10.953,4.908 -10.953,10.954l-0,167.474c-0,6.046 4.908,10.955 10.953,10.955l168.164,-0c6.045,-0 10.954,-4.909 10.954,-10.955l-0,-167.474Zm-1.296,-0c0,-5.331 -4.327,-9.658 -9.658,-9.658l-168.164,-0c-5.33,-0 -9.658,4.327 -9.658,9.658l0,167.474c0,5.331 4.328,9.658 9.658,9.658l168.164,0c5.331,0 9.658,-4.327 9.658,-9.658l0,-167.474Z"/><rect x="319.605" y="58.106" width="187.48" height="0.037" style="fill:#ddd;"/><path d="M319.605,57.329l0,1.555l-0.777,-0.776l0.777,0.813l187.48,0c0,0 0.778,-0.626 0.778,-0.813c-0,-0.707 -0.778,0.776 -0.778,0.776l0,-1.555l-187.48,-0Zm187.48,0.777l-187.48,0l0,0.038l187.48,-0l0,-0.038Z"/><path d="M336.869,41.408l2.808,-5.997l3.113,-0l-4.464,8.123l4.57,8.306l-3.082,-0l-2.9,-6.15l-2.916,6.15l-3.097,-0l4.571,-8.306l-4.45,-8.123l3.083,-0l2.764,5.997Z" style="fill-rule:nonzero;"/></g><g><path d="M527.609,25.503c0,-5.331 -4.327,-9.658 -9.658,-9.658l-168.164,-0c-5.33,-0 -9.658,4.327 -9.658,9.658l0,167.475c0,5.33 4.328,9.658 9.658,9.658l168.164,-0c5.331,-0 9.658,-4.328 9.658,-9.658l0,-167.475Z" style="fill:#ebebeb;"/><path d="M528.905,25.503c-0,-6.046 -4.909,-10.954 -10.954,-10.954l-168.164,-0c-6.045,-0 -10.953,4.908 -10.953,10.954l-0,167.475c-0,6.045 4.908,10.954 10.953,10.954l168.164,-0c6.045,-0 10.954,-4.909 10.954,-10.954l-0,-167.475Zm-1.296,0c0,-5.331 -4.327,-9.658 -9.658,-9.658l-168.164,-0c-5.33,-0 -9.658,4.327 -9.658,9.658l0,167.475c0,5.33 4.328,9.658 9.658,9.658l168.164,-0c5.331,-0 9.658,-4.328 9.658,-9.658l0,-167.475Z"/><rect x="340.129" y="45.046" width="187.48" height="0.037" style="fill:#ddd;"/><path d="M527.609,45.046l0,-0.778l-187.48,0l0,1.555l-0.777,-0.776l-0,0.035l0.777,0.778l187.48,0c0,0 0.778,-0.625 0.778,-0.813c-0,-0.707 -0.778,0.776 -0.778,0.776l0,-0.74l-187.48,-0l0,-0.037l187.48,-0Z"/><path d="M357.393,28.347l2.808,-5.997l3.113,-0l-4.464,8.123l4.57,8.306l-3.082,-0l-2.9,-6.15l-2.916,6.15l-3.097,-0l4.571,-8.306l-4.45,-8.123l3.083,-0l2.764,5.997Z" style="fill-rule:nonzero;"/></g><g><path d="M548.133,14.308c0,-5.331 -4.327,-9.658 -9.658,-9.658l-168.164,0c-5.33,0 -9.658,4.327 -9.658,9.658l0,167.475c0,5.33 4.328,9.658 9.658,9.658l168.164,-0c5.331,-0 9.658,-4.328 9.658,-9.658l0,-167.475Z" style="fill:#ebebeb;"/><path d="M549.429,14.308c-0,-6.046 -4.909,-10.954 -10.954,-10.954l-168.164,-0c-6.045,-0 -10.953,4.908 -10.953,10.954l-0,167.475c-0,6.046 4.908,10.954 10.953,10.954l168.164,-0c6.045,-0 10.954,-4.908 10.954,-10.954l-0,-167.475Zm-1.296,0c0,-5.331 -4.327,-9.658 -9.658,-9.658l-168.164,0c-5.33,0 -9.658,4.327 -9.658,9.658l0,167.475c0,5.33 4.328,9.658 9.658,9.658l168.164,-0c5.331,-0 9.658,-4.328 9.658,-9.658l0,-167.475Z"/><rect x="360.653" y="33.851" width="187.48" height="0.037" style="fill:#ddd;"/><path d="M548.133,33.888l-187.48,0l0,0.74l-0.777,-0.776l-0,0.035l0.777,0.778l187.48,0l0.034,-0.026c0.149,-0.123 0.744,-0.623 0.744,-0.787c-0,-0.707 -0.778,0.776 -0.778,0.776l0,-0.74Zm-187.48,-0.815l0,0.778l187.48,-0l0,-0.778l-187.48,0Z"/><path d="M377.917,17.152l2.808,-5.997l3.113,-0l-4.464,8.123l4.57,8.306l-3.082,0l-2.9,-6.15l-2.916,6.15l-3.097,0l4.571,-8.306l-4.45,-8.123l3.083,-0l2.764,5.997Z" style="fill-rule:nonzero;"/></g><g><path d="M568.657,25.503c0,-5.331 -4.327,-9.658 -9.658,-9.658l-168.164,-0c-5.33,-0 -9.658,4.327 -9.658,9.658l0,167.475c0,5.33 4.328,9.658 9.658,9.658l168.164,-0c5.331,-0 9.658,-4.328 9.658,-9.658l0,-167.475Z" style="fill:#ebebeb;"/><path d="M569.953,25.503c-0,-6.046 -4.909,-10.954 -10.954,-10.954l-168.164,-0c-6.045,-0 -10.953,4.908 -10.953,10.954l-0,167.475c-0,6.045 4.908,10.954 10.953,10.954l168.164,-0c6.045,-0 10.954,-4.909 10.954,-10.954l-0,-167.475Zm-1.296,0c0,-5.331 -4.327,-9.658 -9.658,-9.658l-168.164,-0c-5.33,-0 -9.658,4.327 -9.658,9.658l0,167.475c0,5.33 4.328,9.658 9.658,9.658l168.164,-0c5.331,-0 9.658,-4.328 9.658,-9.658l0,-167.475Z"/><rect x="381.177" y="45.046" width="187.48" height="0.037" style="fill:#ddd;"/><path d="M568.657,45.046l0,-0.778l-187.48,0l0,1.555l-0.777,-0.776l-0,0.035l0.777,0.778l187.48,0c0,0 0.778,-0.625 0.778,-0.813c-0,-0.707 -0.778,0.776 -0.778,0.776l0,-0.74l-187.48,-0l0,-0.037l187.48,-0Z"/><path d="M398.441,28.347l2.808,-5.997l3.113,-0l-4.464,8.123l4.57,8.306l-3.082,-0l-2.9,-6.15l-2.916,6.15l-3.097,-0l4.571,-8.306l-4.45,-8.123l3.083,-0l2.764,5.997Z" style="fill-rule:nonzero;"/></g><g><path d="M589.181,38.564c0,-5.331 -4.327,-9.658 -9.658,-9.658l-168.164,-0c-5.33,-0 -9.658,4.327 -9.658,9.658l0,167.474c0,5.331 4.328,9.658 9.658,9.658l168.164,0c5.331,0 9.658,-4.327 9.658,-9.658l0,-167.474Z" style="fill:#ebebeb;"/><path d="M590.477,38.564c-0,-6.046 -4.909,-10.954 -10.954,-10.954l-168.164,-0c-6.045,-0 -10.953,4.908 -10.953,10.954l-0,167.474c-0,6.046 4.908,10.955 10.953,10.955l168.164,-0c6.045,-0 10.954,-4.909 10.954,-10.955l-0,-167.474Zm-1.296,-0c0,-5.331 -4.327,-9.658 -9.658,-9.658l-168.164,-0c-5.33,-0 -9.658,4.327 -9.658,9.658l0,167.474c0,5.331 4.328,9.658 9.658,9.658l168.164,0c5.331,0 9.658,-4.327 9.658,-9.658l0,-167.474Z"/><rect x="401.701" y="58.106" width="187.48" height="0.037" style="fill:#ddd;"/><path d="M401.701,57.329l0,1.555l-0.777,-0.776l-0,0.035c-0,0.71 0.777,0.778 0.777,0.778l187.48,0c0,0 0.778,-0.626 0.778,-0.813c-0,-0.707 -0.778,0.776 -0.778,0.776l0,-1.555l-187.48,-0Zm187.48,0.777l-187.48,0l0,0.038l187.48,-0l0,-0.038Z"/><path d="M418.965,41.408l2.808,-5.997l3.113,-0l-4.464,8.123l4.57,8.306l-3.082,-0l-2.9,-6.15l-2.916,6.15l-3.097,-0l4.571,-8.306l-4.45,-8.123l3.083,-0l2.764,5.997Z" style="fill-rule:nonzero;"/></g><g><path d="M609.705,47.893c0,-5.331 -4.327,-9.658 -9.658,-9.658l-168.164,-0c-5.33,-0 -9.658,4.327 -9.658,9.658l0,167.474c0,5.331 4.328,9.659 9.658,9.659l168.164,-0c5.331,-0 9.658,-4.328 9.658,-9.659l0,-167.474Z" style="fill:#ebebeb;"/><path d="M611.001,47.893c-0,-6.046 -4.909,-10.954 -10.954,-10.954l-168.164,-0c-6.045,-0 -10.953,4.908 -10.953,10.954l-0,167.474c-0,6.046 4.908,10.955 10.953,10.955l168.164,-0c6.045,-0 10.954,-4.909 10.954,-10.955l-0,-167.474Zm-1.296,-0c0,-5.331 -4.327,-9.658 -9.658,-9.658l-168.164,-0c-5.33,-0 -9.658,4.327 -9.658,9.658l0,167.474c0,5.331 4.328,9.659 9.658,9.659l168.164,-0c5.331,-0 9.658,-4.328 9.658,-9.659l0,-167.474Z"/><rect x="422.225" y="67.435" width="187.48" height="0.037" style="fill:#ddd;"/><path d="M609.705,67.435l0,-0.777l-187.48,-0l0,1.555l-0.777,-0.776l-0,0.035l0.777,0.778l187.48,0c0,0 0.778,-0.626 0.778,-0.813c-0,-0.707 -0.778,0.776 -0.778,0.776l0,-0.74l-187.48,-0l0,-0.038l187.48,0Z"/><path d="M439.489,50.737l2.808,-5.997l3.113,-0l-4.464,8.123l4.57,8.306l-3.082,-0l-2.9,-6.15l-2.916,6.15l-3.097,-0l4.571,-8.306l-4.45,-8.123l3.083,-0l2.764,5.997Z" style="fill-rule:nonzero;"/></g><path d="M458.116,177.874c-8.751,-0 -15.248,-3.093 -19.492,-9.278c-4.244,-6.185 -6.366,-14.968 -6.366,-26.351c-0,-11.383 2.122,-20.167 6.366,-26.352c4.244,-6.185 10.741,-9.277 19.492,-9.277c3.356,-0 6.267,0.444 8.735,1.332c2.467,0.888 4.589,2.106 6.365,3.652c1.777,1.546 3.274,3.355 4.491,5.428c1.217,2.073 2.221,4.293 3.01,6.662l-9.968,3.356c-0.526,-1.58 -1.118,-3.06 -1.776,-4.442c-0.658,-1.381 -1.481,-2.566 -2.468,-3.553c-0.987,-0.987 -2.155,-1.776 -3.503,-2.368c-1.349,-0.593 -3.011,-0.889 -4.985,-0.889c-4.869,0 -8.422,1.859 -10.659,5.577c-2.237,3.717 -3.355,8.734 -3.355,15.051l-0,11.646c-0,6.316 1.118,11.333 3.355,15.051c2.237,3.717 5.79,5.576 10.659,5.576c1.974,-0 3.636,-0.296 4.985,-0.888c1.348,-0.592 2.516,-1.382 3.503,-2.369c0.987,-0.987 1.81,-2.171 2.468,-3.553c0.658,-1.382 1.25,-2.862 1.776,-4.441l9.968,3.355c-0.789,2.369 -1.793,4.59 -3.01,6.662c-1.217,2.073 -2.714,3.882 -4.491,5.429c-1.776,1.546 -3.898,2.763 -6.365,3.651c-2.468,0.889 -5.379,1.333 -8.735,1.333Z" style="fill-rule:nonzero;"/><path d="M529.67,143.725l0.296,-20.726l-0.789,0l-13.818,35.432l-13.817,-35.432l-0.79,0l0.297,20.726l-0,32.964l-9.771,0l-0,-68.889l13.521,-0l10.56,27.339l0.691,-0l10.659,-27.339l12.732,-0l0,68.889l-9.771,0l0,-32.964Z" style="fill-rule:nonzero;"/><path d="M553.061,107.8l20.529,-0c8.816,-0 15.347,2.928 19.591,8.784c4.243,5.856 6.365,14.409 6.365,25.661c0,11.251 -2.122,19.805 -6.365,25.66c-4.244,5.856 -10.775,8.784 -19.591,8.784l-20.529,0l-0,-68.889Zm19.838,59.809c5.066,0 8.833,-1.694 11.3,-5.082c2.468,-3.389 3.701,-8.242 3.701,-14.558l0,-11.449c0,-6.316 -1.233,-11.169 -3.701,-14.557c-2.467,-3.389 -6.234,-5.083 -11.3,-5.083l-8.883,-0l0,50.729l8.883,0Z" style="fill-rule:nonzero;"/><path d="M664.677,144.891l0.297,-20.737l-0.79,-0l-13.825,35.451l-13.825,-35.451l-0.79,-0l0.296,20.737l-0,32.983l-9.776,-0l-0,-68.928l13.528,0l10.567,27.354l0.691,-0l10.665,-27.354l12.739,0l-0,68.928l-9.777,-0l0,-32.983Z" style="fill-rule:nonzero;"/><path d="M688.476,177.874l0,-68.928l43.154,0l-0,9.283l-32.094,-0l0,20.046l30.909,-0l-0,9.282l-30.909,0l0,21.034l32.094,0l-0,9.283l-43.154,-0Z" style="fill-rule:nonzero;"/></svg>