<?xml version="1.0" encoding="UTF-8" standalone="no"?><!DOCTYPE svg PUBLIC "-//W3C//DTD SVG 1.1//EN" "http://www.w3.org/Graphics/SVG/1.1/DTD/svg11.dtd"><svg width="100%" height="100%" viewBox="0 0 984 375" version="1.1" xmlns="http://www.w3.org/2000/svg" xmlns:xlink="http://www.w3.org/1999/xlink" xml:space="preserve" xmlns:serif="http://www.serif.com/" style="fill-rule:evenodd;clip-rule:evenodd;stroke-linejoin:round;stroke-miterlimit:2;"><g><path d="M306.722,25.861c-0,-8.571 -6.958,-15.529 -15.529,-15.529l-270.386,-0c-8.571,-0 -15.529,6.958 -15.529,15.529l0,269.278c0,8.571 6.958,15.529 15.529,15.529l270.386,0c8.571,0 15.529,-6.958 15.529,-15.529l-0,-269.278Z" style="fill:#ebebeb;"/><path d="M308.805,25.861c0,-9.721 -7.892,-17.613 -17.612,-17.613c-0,0 -270.386,0 -270.386,0c-9.72,0 -17.612,7.892 -17.612,17.613c-0,-0 -0,269.278 -0,269.278c-0,9.721 7.892,17.613 17.612,17.613c0,-0 270.386,-0 270.386,-0c9.72,-0 17.612,-7.892 17.612,-17.613l0,-269.278Zm-2.083,-0c-0,-8.571 -6.958,-15.529 -15.529,-15.529l-270.386,-0c-8.571,-0 -15.529,6.958 -15.529,15.529l0,269.278c0,8.571 6.958,15.529 15.529,15.529l270.386,0c8.571,0 15.529,-6.958 15.529,-15.529l-0,-269.278Z"/><rect x="5.278" y="57.283" width="301.444" height="0.06" style="fill:#ddd;"/><path d="M306.722,57.343l-301.444,0l0,1.19l-1.25,-1.248c0,-0 0,0.057 0,0.057c0,0 1.25,1.251 1.25,1.251l301.444,0l0.054,-0.043c0.239,-0.197 1.196,-1.001 1.196,-1.265c-0,-1.136 -1.25,1.248 -1.25,1.248l-0,-1.19Zm-301.444,-1.31l0,1.25l301.444,0l-0,-1.25l-301.444,0Z"/><path d="M33.035,30.434l4.516,-9.643l5.005,-0l-7.178,13.061l7.349,13.355l-4.956,-0l-4.663,-9.888l-4.688,9.888l-4.98,-0l7.349,-13.355l-7.154,-13.061l4.956,-0l4.444,9.643Z" style="fill-rule:nonzero;"/></g><g><path d="M336.722,43.861c-0,-8.571 -6.958,-15.529 -15.529,-15.529l-270.386,-0c-8.571,-0 -15.529,6.958 -15.529,15.529l0,269.278c0,8.571 6.958,15.529 15.529,15.529l270.386,0c8.571,0 15.529,-6.958 15.529,-15.529l-0,-269.278Z" style="fill:#ebebeb;"/><path d="M338.805,43.861c0,-9.721 -7.892,-17.613 -17.612,-17.613l-270.386,0c-9.72,0 -17.612,7.892 -17.612,17.613c-0,-0 -0,269.278 -0,269.278c-0,9.721 7.892,17.613 17.612,17.613l270.386,-0c9.72,-0 17.612,-7.892 17.612,-17.613c0,0 0,-269.278 0,-269.278Zm-2.083,-0c-0,-8.571 -6.958,-15.529 -15.529,-15.529l-270.386,-0c-8.571,-0 -15.529,6.958 -15.529,15.529l0,269.278c0,8.571 6.958,15.529 15.529,15.529l270.386,0c8.571,0 15.529,-6.958 15.529,-15.529l-0,-269.278Z"/><rect x="35.278" y="75.283" width="301.444" height="0.06" style="fill:#ddd;"/><path d="M336.722,75.283l-0,-1.25l-301.444,0l0,2.5l-1.25,-1.248l0,0.057c0,1.142 1.25,1.251 1.25,1.251l301.444,0c-0,0 1.25,-1.006 1.25,-1.308c-0,-1.136 -1.25,1.248 -1.25,1.248l-0,-1.19l-301.444,0l0,-0.06l301.444,0Z"/><path d="M63.035,48.434l4.516,-9.643l5.005,-0l-7.178,13.061l7.349,13.355l-4.956,-0l-4.663,-9.888l-4.688,9.888l-4.98,-0l7.349,-13.355l-7.154,-13.061l4.956,-0l4.444,9.643Z" style="fill-rule:nonzero;"/></g><g><path d="M369.722,61.861c-0,-8.571 -6.958,-15.529 -15.529,-15.529l-270.386,-0c-8.571,-0 -15.529,6.958 -15.529,15.529l0,269.278c0,8.571 6.958,15.529 15.529,15.529l270.386,0c8.571,0 15.529,-6.958 15.529,-15.529l-0,-269.278Z" style="fill:#ebebeb;"/><path d="M371.805,61.861c0,-9.721 -7.892,-17.613 -17.612,-17.613l-270.386,0c-9.72,0 -17.612,7.892 -17.612,17.613c-0,-0 -0,269.278 -0,269.278c-0,9.721 7.892,17.613 17.612,17.613c0,-0 270.386,-0 270.386,-0c9.72,-0 17.612,-7.892 17.612,-17.613l0,-269.278Zm-2.083,-0c-0,-8.571 -6.958,-15.529 -15.529,-15.529l-270.386,-0c-8.571,-0 -15.529,6.958 -15.529,15.529l0,269.278c0,8.571 6.958,15.529 15.529,15.529l270.386,0c8.571,0 15.529,-6.958 15.529,-15.529l-0,-269.278Z"/><rect x="68.278" y="93.283" width="301.444" height="0.06" style="fill:#ddd;"/><path d="M369.722,94.533l-0,-2.5l-301.444,0l0,2.5l-1.25,-1.248c0,-0 0,0.049 0,0.057c0,1.142 1.25,1.251 1.25,1.251l301.444,0c-0,0 1.25,-1.006 1.25,-1.308c-0,-1.136 -1.25,1.248 -1.25,1.248Zm-0,-1.25l-301.444,0l0,0.06l301.444,0l-0,-0.06Z"/><path d="M96.035,66.434l4.516,-9.643l5.005,-0l-7.178,13.061l7.349,13.355l-4.956,-0l-4.663,-9.888l-4.688,9.888l-4.98,-0l7.349,-13.355l-7.154,-13.061l4.956,-0l4.444,9.643Z" style="fill-rule:nonzero;"/></g><g><path d="M402.722,79.861c-0,-8.571 -6.958,-15.529 -15.529,-15.529l-270.386,-0c-8.571,-0 -15.529,6.958 -15.529,15.529l0,269.278c0,8.571 6.958,15.529 15.529,15.529l270.386,0c8.571,0 15.529,-6.958 15.529,-15.529l-0,-269.278Z" style="fill:#ebebeb;"/><path d="M404.805,79.861c0,-9.721 -7.892,-17.613 -17.612,-17.613l-270.386,0c-9.72,0 -17.612,7.892 -17.612,17.613l-0,269.278c-0,9.721 7.892,17.613 17.612,17.613c0,-0 270.386,-0 270.386,-0c9.72,-0 17.612,-7.892 17.612,-17.613c0,0 0,-269.278 0,-269.278Zm-2.083,-0c-0,-8.571 -6.958,-15.529 -15.529,-15.529l-270.386,-0c-8.571,-0 -15.529,6.958 -15.529,15.529l0,269.278c0,8.571 6.958,15.529 15.529,15.529l270.386,0c8.571,0 15.529,-6.958 15.529,-15.529l-0,-269.278Z"/><rect x="101.278" y="111.283" width="301.444" height="0.06" style="fill:#ddd;"/><path d="M402.722,111.283l-0,-1.25l-301.444,0l0,2.5l-1.25,-1.248c0,-0 1.25,1.308 1.25,1.308c0,0 301.444,0 301.444,0c-0,0 1.25,-1.006 1.25,-1.308c-0,-1.136 -1.25,1.248 -1.25,1.248l-0,-1.19l-301.444,0l0,-0.06l301.444,0Z"/><path d="M129.035,84.434l4.516,-9.643l5.005,-0l-7.178,13.061l7.349,13.355l-4.956,-0l-4.663,-9.888l-4.688,9.888l-4.98,-0l7.349,-13.355l-7.154,-13.061l4.956,-0l4.444,9.643Z" style="fill-rule:nonzero;"/></g><g><path d="M438.722,61.861c-0,-8.571 -6.958,-15.529 -15.529,-15.529l-270.386,-0c-8.571,-0 -15.529,6.958 -15.529,15.529l0,269.278c0,8.571 6.958,15.529 15.529,15.529l270.386,0c8.571,0 15.529,-6.958 15.529,-15.529l-0,-269.278Z" style="fill:#ebebeb;"/><path d="M440.805,61.861c0,-9.721 -7.892,-17.613 -17.612,-17.613l-270.386,0c-9.72,0 -17.612,7.892 -17.612,17.613l-0,269.278c-0,9.721 7.892,17.613 17.612,17.613c0,-0 270.386,-0 270.386,-0c9.72,-0 17.612,-7.892 17.612,-17.613c0,0 0,-269.278 0,-269.278Zm-2.083,-0c-0,-8.571 -6.958,-15.529 -15.529,-15.529l-270.386,-0c-8.571,-0 -15.529,6.958 -15.529,15.529l0,269.278c0,8.571 6.958,15.529 15.529,15.529l270.386,0c8.571,0 15.529,-6.958 15.529,-15.529l-0,-269.278Z"/><rect x="137.278" y="93.283" width="301.444" height="0.06" style="fill:#ddd;"/><path d="M438.722,94.533l-0,-2.5l-301.444,0l0,2.5l-1.25,-1.248c0,-0 0,0.049 0,0.057c0,1.142 1.25,1.251 1.25,1.251l301.444,0c-0,0 1.25,-1.006 1.25,-1.308c-0,-1.136 -1.25,1.248 -1.25,1.248Zm-0,-1.25l-301.444,0l0,0.06l301.444,0l-0,-0.06Z"/><path d="M165.035,66.434l4.516,-9.643l5.005,-0l-7.178,13.061l7.349,13.355l-4.956,-0l-4.663,-9.888l-4.688,9.888l-4.98,-0l7.349,-13.355l-7.154,-13.061l4.956,-0l4.444,9.643Z" style="fill-rule:nonzero;"/></g><g><path d="M474.722,43.861c-0,-8.571 -6.958,-15.529 -15.529,-15.529l-270.386,-0c-8.571,-0 -15.529,6.958 -15.529,15.529l0,269.278c0,8.571 6.958,15.529 15.529,15.529l270.386,0c8.571,0 15.529,-6.958 15.529,-15.529l-0,-269.278Z" style="fill:#ebebeb;"/><path d="M476.805,43.861c0,-9.721 -7.892,-17.613 -17.612,-17.613l-270.386,0c-9.72,0 -17.612,7.892 -17.612,17.613l-0,269.278c-0,9.721 7.892,17.613 17.612,17.613l270.386,-0c9.72,-0 17.612,-7.892 17.612,-17.613c0,0 0,-269.278 0,-269.278Zm-2.083,-0c-0,-8.571 -6.958,-15.529 -15.529,-15.529l-270.386,-0c-8.571,-0 -15.529,6.958 -15.529,15.529l0,269.278c0,8.571 6.958,15.529 15.529,15.529l270.386,0c8.571,0 15.529,-6.958 15.529,-15.529l-0,-269.278Z"/><rect x="173.278" y="75.283" width="301.444" height="0.06" style="fill:#ddd;"/><path d="M474.722,75.283l-0,-1.25l-301.444,0l0,2.5l-1.25,-1.248c0,-0 0,0.057 0,0.057l1.25,1.251l301.444,0c-0,0 1.25,-1.006 1.25,-1.308c-0,-1.136 -1.25,1.248 -1.25,1.248l-0,-1.19l-301.444,0l0,-0.06l301.444,0Z"/><path d="M201.035,48.434l4.516,-9.643l5.005,-0l-7.178,13.061l7.349,13.355l-4.956,-0l-4.663,-9.888l-4.688,9.888l-4.98,-0l7.349,-13.355l-7.154,-13.061l4.956,-0l4.444,9.643Z" style="fill-rule:nonzero;"/></g><g><path d="M510.722,25.861c-0,-8.571 -6.958,-15.529 -15.529,-15.529l-270.386,-0c-8.571,-0 -15.529,6.958 -15.529,15.529l0,269.278c0,8.571 6.958,15.529 15.529,15.529l270.386,0c8.571,0 15.529,-6.958 15.529,-15.529l-0,-269.278Z" style="fill:#ebebeb;"/><path d="M512.805,25.861c0,-9.721 -7.892,-17.613 -17.612,-17.613c-0,0 -270.386,0 -270.386,0c-9.72,0 -17.612,7.892 -17.612,17.613l-0,269.278c-0,9.721 7.892,17.613 17.612,17.613c0,-0 270.386,-0 270.386,-0c9.72,-0 17.612,-7.892 17.612,-17.613c0,0 0,-269.278 0,-269.278Zm-2.083,-0c-0,-8.571 -6.958,-15.529 -15.529,-15.529l-270.386,-0c-8.571,-0 -15.529,6.958 -15.529,15.529l0,269.278c0,8.571 6.958,15.529 15.529,15.529l270.386,0c8.571,0 15.529,-6.958 15.529,-15.529l-0,-269.278Z"/><rect x="209.278" y="57.283" width="301.444" height="0.06" style="fill:#ddd;"/><path d="M510.722,57.343l-301.444,0l0,1.19c0,0 -1.25,-1.248 -1.25,-1.248c0,-0 1.25,1.308 1.25,1.308l301.444,0l0.054,-0.043c0.239,-0.197 1.196,-1.001 1.196,-1.265c-0,-1.136 -1.25,1.248 -1.25,1.248l-0,-1.19Zm-301.444,-1.31l0,1.25l301.444,0l-0,-1.25l-301.444,0Z"/><path d="M237.035,30.434l4.516,-9.643l5.005,-0l-7.178,13.061l7.349,13.355l-4.956,-0l-4.663,-9.888l-4.688,9.888l-4.98,-0l7.349,-13.355l-7.154,-13.061l4.956,-0l4.444,9.643Z" style="fill-rule:nonzero;"/></g><g><path d="M537.722,43.861c-0,-8.571 -6.958,-15.529 -15.529,-15.529l-270.386,-0c-8.571,-0 -15.529,6.958 -15.529,15.529l0,269.278c0,8.571 6.958,15.529 15.529,15.529l270.386,0c8.571,0 15.529,-6.958 15.529,-15.529l-0,-269.278Z" style="fill:#ebebeb;"/><path d="M539.805,43.861c0,-9.721 -7.892,-17.613 -17.612,-17.613l-270.386,0c-9.72,0 -17.612,7.892 -17.612,17.613c-0,-0 -0,269.278 -0,269.278c-0,9.721 7.892,17.613 17.612,17.613l270.386,-0c9.72,-0 17.612,-7.892 17.612,-17.613c0,0 0,-269.278 0,-269.278Zm-2.083,-0c-0,-8.571 -6.958,-15.529 -15.529,-15.529l-270.386,-0c-8.571,-0 -15.529,6.958 -15.529,15.529l0,269.278c0,8.571 6.958,15.529 15.529,15.529l270.386,0c8.571,0 15.529,-6.958 15.529,-15.529l-0,-269.278Z"/><rect x="236.278" y="75.283" width="301.444" height="0.06" style="fill:#ddd;"/><path d="M537.722,75.283l-0,-1.25l-301.444,0l0,2.5l-1.25,-1.248l0,0.057c0,1.142 1.25,1.251 1.25,1.251l301.444,0c-0,0 1.25,-1.006 1.25,-1.308c-0,-1.136 -1.25,1.248 -1.25,1.248l-0,-1.19l-301.444,0l0,-0.06l301.444,0Z"/><path d="M264.035,48.434l4.516,-9.643l5.005,-0l-7.178,13.061l7.349,13.355l-4.956,-0l-4.663,-9.888l-4.688,9.888l-4.98,-0l7.349,-13.355l-7.154,-13.061l4.956,-0l4.444,9.643Z" style="fill-rule:nonzero;"/></g><g><path d="M561.722,64.861c-0,-8.571 -6.958,-15.529 -15.529,-15.529l-270.386,-0c-8.571,-0 -15.529,6.958 -15.529,15.529l0,269.278c0,8.571 6.958,15.529 15.529,15.529l270.386,0c8.571,0 15.529,-6.958 15.529,-15.529l-0,-269.278Z" style="fill:#ebebeb;"/><path d="M563.805,64.861c0,-9.721 -7.892,-17.613 -17.612,-17.613c-0,0 -270.386,0 -270.386,0c-9.72,0 -17.612,7.892 -17.612,17.613l-0,269.278c-0,9.721 7.892,17.613 17.612,17.613c0,-0 270.386,-0 270.386,-0c9.72,-0 17.612,-7.892 17.612,-17.613c0,0 0,-269.278 0,-269.278Zm-2.083,-0c-0,-8.571 -6.958,-15.529 -15.529,-15.529l-270.386,-0c-8.571,-0 -15.529,6.958 -15.529,15.529l0,269.278c0,8.571 6.958,15.529 15.529,15.529l270.386,0c8.571,0 15.529,-6.958 15.529,-15.529l-0,-269.278Z"/><rect x="260.278" y="96.283" width="301.444" height="0.06" style="fill:#ddd;"/><path d="M260.278,95.033l0,2.5l-1.25,-1.248c0,-0 0,0.049 0,0.057c0,1.142 1.25,1.251 1.25,1.251l301.444,0c-0,0 1.25,-1.006 1.25,-1.308c-0,-1.136 -1.25,1.248 -1.25,1.248l-0,-2.5l-301.444,0Zm301.444,1.25l-301.444,0l0,0.06l301.444,0l-0,-0.06Z"/><path d="M288.035,69.434l4.516,-9.643l5.005,-0l-7.178,13.061l7.349,13.355l-4.956,-0l-4.663,-9.888l-4.688,9.888l-4.98,-0l7.349,-13.355l-7.154,-13.061l4.956,-0l4.444,9.643Z" style="fill-rule:nonzero;"/></g><g><path d="M588.722,79.861c-0,-8.571 -6.958,-15.529 -15.529,-15.529l-270.386,-0c-8.571,-0 -15.529,6.958 -15.529,15.529l0,269.278c0,8.571 6.958,15.529 15.529,15.529l270.386,0c8.571,0 15.529,-6.958 15.529,-15.529l-0,-269.278Z" style="fill:#ebebeb;"/><path d="M590.805,79.861c0,-9.721 -7.892,-17.613 -17.612,-17.613l-270.386,0c-9.72,0 -17.612,7.892 -17.612,17.613c-0,-0 -0,269.278 -0,269.278c-0,9.721 7.892,17.613 17.612,17.613c0,-0 270.386,-0 270.386,-0c9.72,-0 17.612,-7.892 17.612,-17.613c0,0 0,-269.278 0,-269.278Zm-2.083,-0c-0,-8.571 -6.958,-15.529 -15.529,-15.529l-270.386,-0c-8.571,-0 -15.529,6.958 -15.529,15.529l0,269.278c0,8.571 6.958,15.529 15.529,15.529l270.386,0c8.571,0 15.529,-6.958 15.529,-15.529l-0,-269.278Z"/><rect x="287.278" y="111.283" width="301.444" height="0.06" style="fill:#ddd;"/><path d="M588.722,111.283l-0,-1.25l-301.444,0l0,2.5l-1.25,-1.248l0,0.057c0,1.142 1.25,1.251 1.25,1.251c0,0 301.444,0 301.444,0c-0,0 1.25,-1.006 1.25,-1.308c-0,-1.136 -1.25,1.248 -1.25,1.248l-0,-1.19l-301.444,0l0,-0.06l301.444,0Z"/><path d="M315.035,84.434l4.516,-9.643l5.005,-0l-7.178,13.061l7.349,13.355l-4.956,-0l-4.663,-9.888l-4.688,9.888l-4.98,-0l7.349,-13.355l-7.154,-13.061l4.956,-0l4.444,9.643Z" style="fill-rule:nonzero;"/></g><g><path d="M621.722,64.861c-0,-8.571 -6.958,-15.529 -15.529,-15.529l-270.386,-0c-8.571,-0 -15.529,6.958 -15.529,15.529l0,269.278c0,8.571 6.958,15.529 15.529,15.529l270.386,0c8.571,0 15.529,-6.958 15.529,-15.529l-0,-269.278Z" style="fill:#ebebeb;"/><path d="M623.805,64.861c0,-9.721 -7.892,-17.613 -17.612,-17.613c-0,0 -270.386,0 -270.386,0c-9.72,0 -17.612,7.892 -17.612,17.613c-0,-0 -0,269.278 -0,269.278c-0,9.721 7.892,17.613 17.612,17.613c0,-0 270.386,-0 270.386,-0c9.72,-0 17.612,-7.892 17.612,-17.613c0,0 0,-269.278 0,-269.278Zm-2.083,-0c-0,-8.571 -6.958,-15.529 -15.529,-15.529l-270.386,-0c-8.571,-0 -15.529,6.958 -15.529,15.529l0,269.278c0,8.571 6.958,15.529 15.529,15.529l270.386,0c8.571,0 15.529,-6.958 15.529,-15.529l-0,-269.278Z"/><rect x="320.278" y="96.283" width="301.444" height="0.06" style="fill:#ddd;"/><path d="M320.278,95.033l0,2.5l-1.25,-1.248c0,-0 0,0.049 0,0.057c0,1.142 1.25,1.251 1.25,1.251l301.444,0c-0,0 1.25,-1.006 1.25,-1.308c-0,-1.136 -1.25,1.248 -1.25,1.248l-0,-2.5l-301.444,0Zm301.444,1.25l-301.444,0l0,0.06l301.444,0l-0,-0.06Z"/><path d="M348.035,69.434l4.516,-9.643l5.005,-0l-7.178,13.061l7.349,13.355l-4.956,-0l-4.663,-9.888l-4.688,9.888l-4.98,-0l7.349,-13.355l-7.154,-13.061l4.956,-0l4.444,9.643Z" style="fill-rule:nonzero;"/></g><g><path d="M654.722,43.861c-0,-8.571 -6.958,-15.529 -15.529,-15.529l-270.386,-0c-8.571,-0 -15.529,6.958 -15.529,15.529l0,269.278c0,8.571 6.958,15.529 15.529,15.529l270.386,0c8.571,0 15.529,-6.958 15.529,-15.529l-0,-269.278Z" style="fill:#ebebeb;"/><path d="M656.805,43.861c0,-9.721 -7.892,-17.613 -17.612,-17.613l-270.386,0c-9.72,0 -17.612,7.892 -17.612,17.613l-0,269.278c-0,9.721 7.892,17.613 17.612,17.613l270.386,-0c9.72,-0 17.612,-7.892 17.612,-17.613c0,0 0,-269.278 0,-269.278Zm-2.083,-0c-0,-8.571 -6.958,-15.529 -15.529,-15.529l-270.386,-0c-8.571,-0 -15.529,6.958 -15.529,15.529l0,269.278c0,8.571 6.958,15.529 15.529,15.529l270.386,0c8.571,0 15.529,-6.958 15.529,-15.529l-0,-269.278Z"/><rect x="353.278" y="75.283" width="301.444" height="0.06" style="fill:#ddd;"/><path d="M654.722,75.283l-0,-1.25l-301.444,0l0,2.5l-1.25,-1.248c0,-0 0,0.057 0,0.057c0,0 1.25,1.251 1.25,1.251l301.444,0c-0,0 1.25,-1.006 1.25,-1.308c-0,-1.136 -1.25,1.248 -1.25,1.248l-0,-1.19l-301.444,0l0,-0.06l301.444,0Z"/><path d="M381.035,48.434l4.516,-9.643l5.005,-0l-7.178,13.061l7.349,13.355l-4.956,-0l-4.663,-9.888l-4.688,9.888l-4.98,-0l7.349,-13.355l-7.154,-13.061l4.956,-0l4.444,9.643Z" style="fill-rule:nonzero;"/></g><g><path d="M687.722,25.861c-0,-8.571 -6.958,-15.529 -15.529,-15.529l-270.386,-0c-8.571,-0 -15.529,6.958 -15.529,15.529l0,269.278c0,8.571 6.958,15.529 15.529,15.529l270.386,0c8.571,0 15.529,-6.958 15.529,-15.529l-0,-269.278Z" style="fill:#ebebeb;"/><path d="M689.805,25.861c0,-9.721 -7.892,-17.613 -17.612,-17.613c-0,0 -270.386,0 -270.386,0c-9.72,0 -17.612,7.892 -17.612,17.613l-0,269.278c-0,9.721 7.892,17.613 17.612,17.613c0,-0 270.386,-0 270.386,-0c9.72,-0 17.612,-7.892 17.612,-17.613l0,-269.278Zm-2.083,-0c-0,-8.571 -6.958,-15.529 -15.529,-15.529l-270.386,-0c-8.571,-0 -15.529,6.958 -15.529,15.529l0,269.278c0,8.571 6.958,15.529 15.529,15.529l270.386,0c8.571,0 15.529,-6.958 15.529,-15.529l-0,-269.278Z"/><rect x="386.278" y="57.283" width="301.444" height="0.06" style="fill:#ddd;"/><path d="M687.722,57.343l-301.444,0l0,1.19l-1.25,-1.248l1.25,1.308l301.444,0l0.054,-0.043c0.239,-0.197 1.196,-1.001 1.196,-1.265c-0,-1.136 -1.25,1.248 -1.25,1.248l-0,-1.19Zm-301.444,-1.31l0,1.25l301.444,0l-0,-1.25l-301.444,0Z"/><path d="M414.035,30.434l4.516,-9.643l5.005,-0l-7.178,13.061l7.349,13.355l-4.956,-0l-4.663,-9.888l-4.688,9.888l-4.98,-0l7.349,-13.355l-7.154,-13.061l4.956,-0l4.444,9.643Z" style="fill-rule:nonzero;"/></g><g><path d="M720.722,43.861c-0,-8.571 -6.958,-15.529 -15.529,-15.529l-270.386,-0c-8.571,-0 -15.529,6.958 -15.529,15.529l0,269.278c0,8.571 6.958,15.529 15.529,15.529l270.386,0c8.571,0 15.529,-6.958 15.529,-15.529l-0,-269.278Z" style="fill:#ebebeb;"/><path d="M722.805,43.861c0,-9.721 -7.892,-17.613 -17.612,-17.613l-270.386,0c-9.72,0 -17.612,7.892 -17.612,17.613l-0,269.278c-0,9.721 7.892,17.613 17.612,17.613l270.386,-0c9.72,-0 17.612,-7.892 17.612,-17.613c0,0 0,-269.278 0,-269.278Zm-2.083,-0c-0,-8.571 -6.958,-15.529 -15.529,-15.529l-270.386,-0c-8.571,-0 -15.529,6.958 -15.529,15.529l0,269.278c0,8.571 6.958,15.529 15.529,15.529l270.386,0c8.571,0 15.529,-6.958 15.529,-15.529l-0,-269.278Z"/><rect x="419.278" y="75.283" width="301.444" height="0.06" style="fill:#ddd;"/><path d="M720.722,75.283l-0,-1.25l-301.444,0l0,2.5l-1.25,-1.248l1.25,1.308l301.444,0c-0,0 1.25,-1.006 1.25,-1.308c-0,-1.136 -1.25,1.248 -1.25,1.248l-0,-1.19l-301.444,0l0,-0.06l301.444,0Z"/><path d="M447.035,48.434l4.516,-9.643l5.005,-0l-7.178,13.061l7.349,13.355l-4.956,-0l-4.663,-9.888l-4.688,9.888l-4.98,-0l7.349,-13.355l-7.154,-13.061l4.956,-0l4.444,9.643Z" style="fill-rule:nonzero;"/></g><g><path d="M750.722,64.861c-0,-8.571 -6.958,-15.529 -15.529,-15.529l-270.386,-0c-8.571,-0 -15.529,6.958 -15.529,15.529l0,269.278c0,8.571 6.958,15.529 15.529,15.529l270.386,0c8.571,0 15.529,-6.958 15.529,-15.529l-0,-269.278Z" style="fill:#ebebeb;"/><path d="M752.805,64.861c0,-9.721 -7.892,-17.613 -17.612,-17.613c-0,0 -270.386,0 -270.386,0c-9.72,0 -17.612,7.892 -17.612,17.613l-0,269.278c-0,9.721 7.892,17.613 17.612,17.613c0,-0 270.386,-0 270.386,-0c9.72,-0 17.612,-7.892 17.612,-17.613c0,0 0,-269.278 0,-269.278Zm-2.083,-0c-0,-8.571 -6.958,-15.529 -15.529,-15.529l-270.386,-0c-8.571,-0 -15.529,6.958 -15.529,15.529l0,269.278c0,8.571 6.958,15.529 15.529,15.529l270.386,0c8.571,0 15.529,-6.958 15.529,-15.529l-0,-269.278Z"/><rect x="449.278" y="96.283" width="301.444" height="0.06" style="fill:#ddd;"/><path d="M449.278,95.033l0,2.5l-1.25,-1.248c0,-0 0,0.057 0,0.057c0,0 1.25,1.251 1.25,1.251l301.444,0c-0,0 1.25,-1.006 1.25,-1.308c-0,-1.136 -1.25,1.248 -1.25,1.248l-0,-2.5l-301.444,0Zm301.444,1.25l-301.444,0l0,0.06l301.444,0l-0,-0.06Z"/><path d="M477.035,69.434l4.516,-9.643l5.005,-0l-7.178,13.061l7.349,13.355l-4.956,-0l-4.663,-9.888l-4.688,9.888l-4.98,-0l7.349,-13.355l-7.154,-13.061l4.956,-0l4.444,9.643Z" style="fill-rule:nonzero;"/></g><g><path d="M777.722,79.861c-0,-8.571 -6.958,-15.529 -15.529,-15.529l-270.386,-0c-8.571,-0 -15.529,6.958 -15.529,15.529l0,269.278c0,8.571 6.958,15.529 15.529,15.529l270.386,0c8.571,0 15.529,-6.958 15.529,-15.529l-0,-269.278Z" style="fill:#ebebeb;"/><path d="M779.805,79.861c0,-9.721 -7.892,-17.613 -17.612,-17.613l-270.386,0c-9.72,0 -17.612,7.892 -17.612,17.613c-0,-0 -0,269.278 -0,269.278c-0,9.721 7.892,17.613 17.612,17.613c0,-0 270.386,-0 270.386,-0c9.72,-0 17.612,-7.892 17.612,-17.613c0,0 0,-269.278 0,-269.278Zm-2.083,-0c-0,-8.571 -6.958,-15.529 -15.529,-15.529l-270.386,-0c-8.571,-0 -15.529,6.958 -15.529,15.529l0,269.278c0,8.571 6.958,15.529 15.529,15.529l270.386,0c8.571,0 15.529,-6.958 15.529,-15.529l-0,-269.278Z"/><rect x="476.278" y="111.283" width="301.444" height="0.06" style="fill:#ddd;"/><path d="M777.722,111.283l-0,-1.25l-301.444,0l0,2.5l-1.25,-1.248c0,-0 0,0.049 0,0.057c0,1.142 1.25,1.251 1.25,1.251c0,0 301.444,0 301.444,0c-0,0 1.25,-1.006 1.25,-1.308c-0,-1.136 -1.25,1.248 -1.25,1.248l-0,-1.19l-301.444,0l0,-0.06l301.444,0Z"/><path d="M504.035,84.434l4.516,-9.643l5.005,-0l-7.178,13.061l7.349,13.355l-4.956,-0l-4.663,-9.888l-4.688,9.888l-4.98,-0l7.349,-13.355l-7.154,-13.061l4.956,-0l4.444,9.643Z" style="fill-rule:nonzero;"/></g><g><path d="M813.722,64.861c-0,-8.571 -6.958,-15.529 -15.529,-15.529l-270.386,-0c-8.571,-0 -15.529,6.958 -15.529,15.529l0,269.278c0,8.571 6.958,15.529 15.529,15.529l270.386,0c8.571,0 15.529,-6.958 15.529,-15.529l-0,-269.278Z" style="fill:#ebebeb;"/><path d="M815.805,64.861c0,-9.721 -7.892,-17.613 -17.612,-17.613c-0,0 -270.386,0 -270.386,0c-9.72,0 -17.612,7.892 -17.612,17.613l-0,269.278c-0,9.721 7.892,17.613 17.612,17.613c0,-0 270.386,-0 270.386,-0c9.72,-0 17.612,-7.892 17.612,-17.613c0,0 0,-269.278 0,-269.278Zm-2.083,-0c-0,-8.571 -6.958,-15.529 -15.529,-15.529l-270.386,-0c-8.571,-0 -15.529,6.958 -15.529,15.529l0,269.278c0,8.571 6.958,15.529 15.529,15.529l270.386,0c8.571,0 15.529,-6.958 15.529,-15.529l-0,-269.278Z"/><rect x="512.278" y="96.283" width="301.444" height="0.06" style="fill:#ddd;"/><path d="M512.278,95.033l0,2.5l-1.25,-1.248c0,-0 1.25,1.308 1.25,1.308l301.444,0c-0,0 1.25,-1.006 1.25,-1.308c-0,-1.136 -1.25,1.248 -1.25,1.248l-0,-2.5l-301.444,0Zm301.444,1.25l-301.444,0l0,0.06l301.444,0l-0,-0.06Z"/><path d="M540.035,69.434l4.516,-9.643l5.005,-0l-7.178,13.061l7.349,13.355l-4.956,-0l-4.663,-9.888l-4.688,9.888l-4.98,-0l7.349,-13.355l-7.154,-13.061l4.956,-0l4.444,9.643Z" style="fill-rule:nonzero;"/></g><g><path d="M846.722,43.861c-0,-8.571 -6.958,-15.529 -15.529,-15.529l-270.386,-0c-8.571,-0 -15.529,6.958 -15.529,15.529l0,269.278c0,8.571 6.958,15.529 15.529,15.529l270.386,0c8.571,0 15.529,-6.958 15.529,-15.529l-0,-269.278Z" style="fill:#ebebeb;"/><path d="M848.805,43.861c0,-9.721 -7.892,-17.613 -17.612,-17.613l-270.386,0c-9.72,0 -17.612,7.892 -17.612,17.613l-0,269.278c-0,9.721 7.892,17.613 17.612,17.613l270.386,-0c9.72,-0 17.612,-7.892 17.612,-17.613c0,0 0,-269.278 0,-269.278Zm-2.083,-0c-0,-8.571 -6.958,-15.529 -15.529,-15.529l-270.386,-0c-8.571,-0 -15.529,6.958 -15.529,15.529l0,269.278c0,8.571 6.958,15.529 15.529,15.529l270.386,0c8.571,0 15.529,-6.958 15.529,-15.529l-0,-269.278Z"/><rect x="545.278" y="75.283" width="301.444" height="0.06" style="fill:#ddd;"/><path d="M846.722,75.283l-0,-1.25l-301.444,0l0,2.5l-1.25,-1.248c0,-0 0,0.057 0,0.057c0,0 1.25,1.251 1.25,1.251l301.444,0c-0,0 1.25,-1.006 1.25,-1.308c-0,-1.136 -1.25,1.248 -1.25,1.248l-0,-1.19l-301.444,0l0,-0.06l301.444,0Z"/><path d="M573.035,48.434l4.516,-9.643l5.005,-0l-7.178,13.061l7.349,13.355l-4.956,-0l-4.663,-9.888l-4.688,9.888l-4.98,-0l7.349,-13.355l-7.154,-13.061l4.956,-0l4.444,9.643Z" style="fill-rule:nonzero;"/></g><g><path d="M879.722,25.861c-0,-8.571 -6.958,-15.529 -15.529,-15.529l-270.386,-0c-8.571,-0 -15.529,6.958 -15.529,15.529l0,269.278c0,8.571 6.958,15.529 15.529,15.529l270.386,0c8.571,0 15.529,-6.958 15.529,-15.529l-0,-269.278Z" style="fill:#ebebeb;"/><path d="M881.805,25.861c0,-9.721 -7.892,-17.613 -17.612,-17.613c-0,0 -270.386,0 -270.386,0c-9.72,0 -17.612,7.892 -17.612,17.613l-0,269.278c-0,9.721 7.892,17.613 17.612,17.613c0,-0 270.386,-0 270.386,-0c9.72,-0 17.612,-7.892 17.612,-17.613l0,-269.278Zm-2.083,-0c-0,-8.571 -6.958,-15.529 -15.529,-15.529l-270.386,-0c-8.571,-0 -15.529,6.958 -15.529,15.529l0,269.278c0,8.571 6.958,15.529 15.529,15.529l270.386,0c8.571,0 15.529,-6.958 15.529,-15.529l-0,-269.278Z"/><rect x="578.278" y="57.283" width="301.444" height="0.06" style="fill:#ddd;"/><path d="M879.722,57.343l-301.444,0l0,1.19c0,0 -1.25,-1.248 -1.25,-1.248c0,-0 0,0.057 0,0.057c0,0 1.25,1.251 1.25,1.251l301.444,0l0.054,-0.043c0.239,-0.197 1.196,-1.001 1.196,-1.265c-0,-1.136 -1.25,1.248 -1.25,1.248l-0,-1.19Zm-301.444,-1.31l0,1.25l301.444,0l-0,-1.25l-301.444,0Z"/><path d="M606.035,30.434l4.516,-9.643l5.005,-0l-7.178,13.061l7.349,13.355l-4.956,-0l-4.663,-9.888l-4.688,9.888l-4.98,-0l7.349,-13.355l-7.154,-13.061l4.956,-0l4.444,9.643Z" style="fill-rule:nonzero;"/></g><g><path d="M912.722,43.861c-0,-8.571 -6.958,-15.529 -15.529,-15.529l-270.386,-0c-8.571,-0 -15.529,6.958 -15.529,15.529l0,269.278c0,8.571 6.958,15.529 15.529,15.529l270.386,0c8.571,0 15.529,-6.958 15.529,-15.529l-0,-269.278Z" style="fill:#ebebeb;"/><path d="M914.805,43.861c0,-9.721 -7.892,-17.613 -17.612,-17.613l-270.386,0c-9.72,0 -17.612,7.892 -17.612,17.613l-0,269.278c-0,9.721 7.892,17.613 17.612,17.613l270.386,-0c9.72,-0 17.612,-7.892 17.612,-17.613c0,0 0,-269.278 0,-269.278Zm-2.083,-0c-0,-8.571 -6.958,-15.529 -15.529,-15.529l-270.386,-0c-8.571,-0 -15.529,6.958 -15.529,15.529l0,269.278c0,8.571 6.958,15.529 15.529,15.529l270.386,0c8.571,0 15.529,-6.958 15.529,-15.529l-0,-269.278Z"/><rect x="611.278" y="75.283" width="301.444" height="0.06" style="fill:#ddd;"/><path d="M912.722,75.283l-0,-1.25l-301.444,0l0,2.5l-1.25,-1.248c0,-0 0,0.057 0,0.057c0,0 1.25,1.251 1.25,1.251l301.444,0c-0,0 1.25,-1.006 1.25,-1.308c-0,-1.136 -1.25,1.248 -1.25,1.248l-0,-1.19l-301.444,0l0,-0.06l301.444,0Z"/><path d="M639.035,48.434l4.516,-9.643l5.005,-0l-7.178,13.061l7.349,13.355l-4.956,-0l-4.663,-9.888l-4.688,9.888l-4.98,-0l7.349,-13.355l-7.154,-13.061l4.956,-0l4.444,9.643Z" style="fill-rule:nonzero;"/></g><g><path d="M945.722,64.861c-0,-8.571 -6.958,-15.529 -15.529,-15.529l-270.386,-0c-8.571,-0 -15.529,6.958 -15.529,15.529l0,269.278c0,8.571 6.958,15.529 15.529,15.529l270.386,0c8.571,0 15.529,-6.958 15.529,-15.529l-0,-269.278Z" style="fill:#ebebeb;"/><path d="M947.805,64.861c0,-9.721 -7.892,-17.613 -17.612,-17.613c-0,0 -270.386,0 -270.386,0c-9.72,0 -17.612,7.892 -17.612,17.613l-0,269.278c-0,9.721 7.892,17.613 17.612,17.613c0,-0 270.386,-0 270.386,-0c9.72,-0 17.612,-7.892 17.612,-17.613l0,-269.278Zm-2.083,-0c-0,-8.571 -6.958,-15.529 -15.529,-15.529l-270.386,-0c-8.571,-0 -15.529,6.958 -15.529,15.529l0,269.278c0,8.571 6.958,15.529 15.529,15.529l270.386,0c8.571,0 15.529,-6.958 15.529,-15.529l-0,-269.278Z"/><rect x="644.278" y="96.283" width="301.444" height="0.06" style="fill:#ddd;"/><path d="M644.278,95.033l0,2.5l-1.25,-1.248l0,0.057c0,1.142 1.25,1.251 1.25,1.251l301.444,0c-0,0 1.25,-1.006 1.25,-1.308c-0,-1.136 -1.25,1.248 -1.25,1.248l-0,-2.5l-301.444,0Zm301.444,1.25l-301.444,0l0,0.06l301.444,0l-0,-0.06Z"/><path d="M672.035,69.434l4.516,-9.643l5.005,-0l-7.178,13.061l7.349,13.355l-4.956,-0l-4.663,-9.888l-4.688,9.888l-4.98,-0l7.349,-13.355l-7.154,-13.061l4.956,-0l4.444,9.643Z" style="fill-rule:nonzero;"/></g><g><path d="M978.722,79.861c-0,-8.571 -6.958,-15.529 -15.529,-15.529l-270.386,-0c-8.571,-0 -15.529,6.958 -15.529,15.529l0,269.278c0,8.571 6.958,15.529 15.529,15.529l270.386,0c8.571,0 15.529,-6.958 15.529,-15.529l-0,-269.278Z" style="fill:#ebebeb;"/><path d="M980.805,79.861c0,-9.721 -7.892,-17.613 -17.612,-17.613l-270.386,0c-9.72,0 -17.612,7.892 -17.612,17.613c-0,-0 -0,269.278 -0,269.278c-0,9.721 7.892,17.613 17.612,17.613c0,-0 270.386,-0 270.386,-0c9.72,-0 17.612,-7.892 17.612,-17.613c0,0 0,-269.278 0,-269.278Zm-2.083,-0c-0,-8.571 -6.958,-15.529 -15.529,-15.529l-270.386,-0c-8.571,-0 -15.529,6.958 -15.529,15.529l0,269.278c0,8.571 6.958,15.529 15.529,15.529l270.386,0c8.571,0 15.529,-6.958 15.529,-15.529l-0,-269.278Z"/><rect x="677.278" y="111.283" width="301.444" height="0.06" style="fill:#ddd;"/><path d="M978.722,111.283l-0,-1.25l-301.444,0l0,2.5l-1.25,-1.248l0,0.057l1.25,1.251c0,0 301.444,0 301.444,0c-0,0 1.25,-1.006 1.25,-1.308c-0,-1.136 -1.25,1.248 -1.25,1.248l-0,-1.19l-301.444,0l0,-0.06l301.444,0Z"/><path d="M705.035,84.434l4.516,-9.643l5.005,-0l-7.178,13.061l7.349,13.355l-4.956,-0l-4.663,-9.888l-4.688,9.888l-4.98,-0l7.349,-13.355l-7.154,-13.061l4.956,-0l4.444,9.643Z" style="fill-rule:nonzero;"/></g></svg>