<?xml version="1.0" encoding="UTF-8" standalone="no"?><!DOCTYPE svg PUBLIC "-//W3C//DTD SVG 1.1//EN" "http://www.w3.org/Graphics/SVG/1.1/DTD/svg11.dtd"><svg width="100%" height="100%" viewBox="0 0 8000 4500" version="1.1" xmlns="http://www.w3.org/2000/svg" xmlns:xlink="http://www.w3.org/1999/xlink" xml:space="preserve" xmlns:serif="http://www.serif.com/" style="fill-rule:evenodd;clip-rule:evenodd;stroke-linecap:round;stroke-linejoin:round;stroke-miterlimit:1.5;"><g id="Window"><path d="M2522.96,454.021c-0,-32.217 -26.117,-58.333 -58.334,-58.333c-306.601,-0 -1729.17,-0 -2035.77,-0c-32.216,-0 -58.333,26.116 -58.333,58.333c-0,299.028 -0,1657.56 -0,1956.59c0,32.217 26.117,58.333 58.333,58.333c306.601,0 1729.17,0 2035.77,0c32.217,0 58.334,-26.116 58.334,-58.333c-0,-299.028 -0,-1657.56 -0,-1956.59Z" style="fill:#eee;stroke:#1a1e29;stroke-width:17.36px;"/><rect x="370.52" y="610.523" width="2152.44" height="6.304" style="fill:none;stroke:#1a1e29;stroke-width:5.79px;"/><text x="446.877px" y="566.685px" style="font-family:'ArialMT', 'Arial', sans-serif;font-size:187.05px;">x</text></g><g id="Window1" serif:id="Window"><path d="M2640.57,563.322c0,-32.217 -26.117,-58.334 -58.333,-58.334c-306.601,0 -1729.17,0 -2035.77,0c-32.217,0 -58.334,26.117 -58.334,58.334c0,299.028 0,1657.56 0,1956.59c0,32.216 26.117,58.333 58.334,58.333c306.601,0 1729.17,0 2035.77,0c32.216,0 58.333,-26.117 58.333,-58.333c0,-299.028 0,-1657.56 0,-1956.59Z" style="fill:#eee;stroke:#1a1e29;stroke-width:17.36px;"/><rect x="488.125" y="719.824" width="2152.44" height="6.304" style="fill:none;stroke:#1a1e29;stroke-width:5.79px;"/><text x="564.482px" y="675.986px" style="font-family:'ArialMT', 'Arial', sans-serif;font-size:187.05px;">x</text></g><g id="Window2" serif:id="Window"><path d="M2761.34,675.327c-0,-32.217 -26.117,-58.334 -58.334,-58.334c-306.6,0 -1729.17,0 -2035.77,0c-32.217,0 -58.334,26.117 -58.334,58.334c0,299.028 0,1657.56 0,1956.59c0,32.216 26.117,58.333 58.334,58.333c306.6,-0 1729.17,-0 2035.77,-0c32.217,-0 58.334,-26.117 58.334,-58.333c-0,-299.028 -0,-1657.56 -0,-1956.59Z" style="fill:#eee;stroke:#1a1e29;stroke-width:17.36px;"/><rect x="608.901" y="831.829" width="2152.44" height="6.304" style="fill:none;stroke:#1a1e29;stroke-width:5.79px;"/><text x="685.258px" y="787.991px" style="font-family:'ArialMT', 'Arial', sans-serif;font-size:187.05px;">x</text></g><g id="Window3" serif:id="Window"><path d="M2872.77,775.741c-0,-32.217 -26.117,-58.334 -58.334,-58.334c-306.601,0 -1729.17,0 -2035.77,0c-32.216,0 -58.333,26.117 -58.333,58.334c-0,299.028 -0,1657.56 -0,1956.59c0,32.216 26.117,58.333 58.333,58.333c306.601,-0 1729.17,-0 2035.77,-0c32.217,-0 58.334,-26.117 58.334,-58.333c-0,-299.028 -0,-1657.56 -0,-1956.59Z" style="fill:#eee;stroke:#1a1e29;stroke-width:17.36px;"/><rect x="720.33" y="932.243" width="2152.44" height="6.304" style="fill:none;stroke:#1a1e29;stroke-width:5.79px;"/><text x="796.687px" y="888.405px" style="font-family:'ArialMT', 'Arial', sans-serif;font-size:187.05px;">x</text></g><g id="Window4" serif:id="Window"><path d="M2976.7,889.112c0,-32.217 -26.117,-58.334 -58.333,-58.334c-306.601,0 -1729.17,0 -2035.77,0c-32.217,0 -58.333,26.117 -58.333,58.334c-0,299.028 -0,1657.56 -0,1956.59c-0,32.216 26.116,58.333 58.333,58.333c306.601,-0 1729.17,-0 2035.77,-0c32.216,0 58.333,-26.117 58.333,-58.333c0,-299.028 0,-1657.56 0,-1956.59Z" style="fill:#eee;stroke:#1a1e29;stroke-width:17.36px;"/><rect x="824.262" y="1045.61" width="2152.44" height="6.304" style="fill:none;stroke:#1a1e29;stroke-width:5.79px;"/><text x="900.618px" y="1001.78px" style="font-family:'ArialMT', 'Arial', sans-serif;font-size:187.05px;">x</text></g><g id="Window5" serif:id="Window"><path d="M3092.31,1003.28c-0,-32.216 -26.117,-58.333 -58.334,-58.333c-306.6,-0 -1729.17,-0 -2035.77,-0c-32.217,-0 -58.334,26.117 -58.334,58.333c0,299.028 0,1657.56 0,1956.59c0,32.217 26.117,58.334 58.334,58.334c306.6,-0 1729.17,-0 2035.77,-0c32.217,-0 58.334,-26.117 58.334,-58.334c-0,-299.028 -0,-1657.56 -0,-1956.59Z" style="fill:#eee;stroke:#1a1e29;stroke-width:17.36px;"/><rect x="939.868" y="1159.78" width="2152.44" height="6.304" style="fill:none;stroke:#1a1e29;stroke-width:5.79px;"/><text x="1016.23px" y="1115.94px" style="font-family:'ArialMT', 'Arial', sans-serif;font-size:187.05px;">x</text></g><g id="Window6" serif:id="Window"><path d="M3295.13,889.112c0,-32.217 -26.116,-58.334 -58.333,-58.334c-306.601,0 -1729.17,0 -2035.77,0c-32.216,0 -58.333,26.117 -58.333,58.334c-0,299.028 -0,1657.56 -0,1956.59c-0,32.216 26.117,58.333 58.333,58.333c306.601,-0 1729.17,-0 2035.77,-0c32.217,0 58.333,-26.117 58.333,-58.333c0,-299.028 0,-1657.56 0,-1956.59Z" style="fill:#eee;stroke:#1a1e29;stroke-width:17.36px;"/><rect x="1142.69" y="1045.61" width="2152.44" height="6.304" style="fill:none;stroke:#1a1e29;stroke-width:5.79px;"/><text x="1219.04px" y="1001.78px" style="font-family:'ArialMT', 'Arial', sans-serif;font-size:187.05px;">x</text></g><g id="Window7" serif:id="Window"><path d="M3460.67,775.741c0,-32.217 -26.116,-58.334 -58.333,-58.334c-306.601,0 -1729.17,0 -2035.77,0c-32.216,0 -58.333,26.117 -58.333,58.334c-0,299.028 -0,1657.56 -0,1956.59c-0,32.216 26.117,58.333 58.333,58.333c306.601,-0 1729.17,-0 2035.77,-0c32.217,-0 58.333,-26.117 58.333,-58.333c0,-299.028 0,-1657.56 0,-1956.59Z" style="fill:#eee;stroke:#1a1e29;stroke-width:17.36px;"/><rect x="1308.23" y="932.243" width="2152.44" height="6.304" style="fill:none;stroke:#1a1e29;stroke-width:5.79px;"/><text x="1384.59px" y="888.405px" style="font-family:'ArialMT', 'Arial', sans-serif;font-size:187.05px;">x</text></g><g id="Window8" serif:id="Window"><path d="M3626.12,675.327c-0,-32.217 -26.117,-58.334 -58.334,-58.334c-306.601,0 -1729.17,0 -2035.77,0c-32.216,0 -58.333,26.117 -58.333,58.334c-0,299.028 -0,1657.56 -0,1956.59c0,32.216 26.117,58.333 58.333,58.333c306.601,-0 1729.17,-0 2035.77,-0c32.217,-0 58.334,-26.117 58.334,-58.333c-0,-299.028 -0,-1657.56 -0,-1956.59Z" style="fill:#eee;stroke:#1a1e29;stroke-width:17.36px;"/><rect x="1473.67" y="831.829" width="2152.44" height="6.304" style="fill:none;stroke:#1a1e29;stroke-width:5.79px;"/><text x="1550.03px" y="787.991px" style="font-family:'ArialMT', 'Arial', sans-serif;font-size:187.05px;">x</text></g><g id="Window9" serif:id="Window"><path d="M3787.7,563.322c0,-32.217 -26.117,-58.334 -58.333,-58.334c-306.601,0 -1729.17,0 -2035.77,0c-32.217,0 -58.333,26.117 -58.334,58.334c0,299.028 0,1657.56 0,1956.59c0.001,32.216 26.117,58.333 58.334,58.333c306.601,0 1729.17,0 2035.77,0c32.216,0 58.333,-26.117 58.333,-58.333c0,-299.028 0,-1657.56 0,-1956.59Z" style="fill:#eee;stroke:#1a1e29;stroke-width:17.36px;"/><rect x="1635.26" y="719.824" width="2152.44" height="6.304" style="fill:none;stroke:#1a1e29;stroke-width:5.79px;"/><text x="1711.62px" y="675.986px" style="font-family:'ArialMT', 'Arial', sans-serif;font-size:187.05px;">x</text></g><g id="Window10" serif:id="Window"><path d="M3948.99,454.021c0,-32.217 -26.116,-58.333 -58.333,-58.333c-306.601,-0 -1729.17,-0 -2035.77,-0c-32.216,-0 -58.333,26.116 -58.333,58.333c-0,299.028 -0,1657.56 -0,1956.59c-0,32.217 26.117,58.333 58.333,58.333c306.601,0 1729.17,0 2035.77,0c32.217,0 58.333,-26.116 58.333,-58.333c0,-299.028 0,-1657.56 0,-1956.59Z" style="fill:#eee;stroke:#1a1e29;stroke-width:17.36px;"/><rect x="1796.55" y="610.523" width="2152.44" height="6.304" style="fill:none;stroke:#1a1e29;stroke-width:5.79px;"/><text x="1872.91px" y="566.685px" style="font-family:'ArialMT', 'Arial', sans-serif;font-size:187.05px;">x</text></g><g id="Window11" serif:id="Window"><path d="M4114.66,380.628c0,-32.217 -26.116,-58.334 -58.333,-58.334c-306.601,0 -1729.17,0 -2035.77,0c-32.217,0 -58.333,26.117 -58.333,58.334c-0,299.028 -0,1657.56 -0,1956.59c-0,32.216 26.116,58.333 58.333,58.333c306.601,-0 1729.17,-0 2035.77,-0c32.217,-0 58.333,-26.117 58.333,-58.333c0,-299.028 0,-1657.56 0,-1956.59Z" style="fill:#eee;stroke:#1a1e29;stroke-width:17.36px;"/><rect x="1962.22" y="537.13" width="2152.44" height="6.304" style="fill:none;stroke:#1a1e29;stroke-width:5.79px;"/><text x="2038.57px" y="493.292px" style="font-family:'ArialMT', 'Arial', sans-serif;font-size:187.05px;">x</text></g><g id="Window12" serif:id="Window"><path d="M4263.73,489.25c-0,-32.217 -26.117,-58.333 -58.334,-58.333c-306.6,-0 -1729.17,-0 -2035.77,-0c-32.217,-0 -58.334,26.116 -58.334,58.333c0,299.028 0,1657.56 0,1956.59c0,32.217 26.117,58.333 58.334,58.333c306.6,0 1729.17,0 2035.77,0c32.217,0 58.334,-26.116 58.334,-58.333c-0,-299.028 -0,-1657.56 -0,-1956.59Z" style="fill:#eee;stroke:#1a1e29;stroke-width:17.36px;"/><rect x="2111.29" y="645.752" width="2152.44" height="6.304" style="fill:none;stroke:#1a1e29;stroke-width:5.79px;"/><text x="2187.65px" y="601.915px" style="font-family:'ArialMT', 'Arial', sans-serif;font-size:187.05px;">x</text></g><g id="Window13" serif:id="Window"><path d="M4364.61,603.724c0,-32.216 -26.116,-58.333 -58.333,-58.333c-306.601,0 -1729.17,0 -2035.77,0c-32.216,0 -58.333,26.117 -58.333,58.333c-0,299.028 -0,1657.56 -0,1956.59c-0,32.216 26.117,58.333 58.333,58.333c306.601,-0 1729.17,-0 2035.77,-0c32.217,-0 58.333,-26.117 58.333,-58.333c0,-299.028 0,-1657.56 0,-1956.59Z" style="fill:#eee;stroke:#1a1e29;stroke-width:17.36px;"/><rect x="2212.17" y="760.226" width="2152.44" height="6.304" style="fill:none;stroke:#1a1e29;stroke-width:5.79px;"/><text x="2288.53px" y="716.389px" style="font-family:'ArialMT', 'Arial', sans-serif;font-size:187.05px;">x</text></g><g id="Window14" serif:id="Window"><path d="M4472.57,708.403c0,-32.217 -26.117,-58.334 -58.333,-58.334c-306.601,0 -1729.17,0 -2035.77,0c-32.217,0 -58.333,26.117 -58.333,58.334c-0,299.028 -0,1657.56 -0,1956.59c-0,32.216 26.116,58.333 58.333,58.333c306.601,0 1729.17,0 2035.77,0c32.216,0 58.333,-26.117 58.333,-58.333c0,-299.028 0,-1657.56 0,-1956.59Z" style="fill:#eee;stroke:#1a1e29;stroke-width:17.36px;"/><rect x="2320.13" y="864.905" width="2152.44" height="6.304" style="fill:none;stroke:#1a1e29;stroke-width:5.79px;"/><text x="2396.49px" y="821.067px" style="font-family:'ArialMT', 'Arial', sans-serif;font-size:187.05px;">x</text></g><g id="Window15" serif:id="Window"><path d="M4574.28,815.04c0,-32.217 -26.116,-58.333 -58.333,-58.333c-306.601,-0 -1729.17,-0 -2035.77,-0c-32.217,-0 -58.333,26.116 -58.333,58.333c-0,299.028 -0,1657.56 -0,1956.59c-0,32.217 26.116,58.333 58.333,58.333c306.601,0 1729.17,0 2035.77,0c32.217,0 58.333,-26.116 58.333,-58.333c0,-299.028 0,-1657.56 0,-1956.59Z" style="fill:#eee;stroke:#1a1e29;stroke-width:17.36px;"/><rect x="2421.84" y="971.542" width="2152.44" height="6.304" style="fill:none;stroke:#1a1e29;stroke-width:5.79px;"/><text x="2498.2px" y="927.704px" style="font-family:'ArialMT', 'Arial', sans-serif;font-size:187.05px;">x</text></g><g id="Window16" serif:id="Window"><path d="M4682.24,919.718c0,-32.217 -26.117,-58.333 -58.333,-58.333c-306.601,-0 -1729.17,-0 -2035.77,-0c-32.217,-0 -58.333,26.116 -58.334,58.333c0,299.028 0,1657.56 0,1956.59c0.001,32.217 26.117,58.333 58.334,58.333c306.601,0 1729.17,0 2035.77,0c32.216,0 58.333,-26.116 58.333,-58.333c0,-299.028 0,-1657.56 0,-1956.59Z" style="fill:#eee;stroke:#1a1e29;stroke-width:17.36px;"/><rect x="2529.8" y="1076.22" width="2152.44" height="6.304" style="fill:none;stroke:#1a1e29;stroke-width:5.79px;"/><text x="2606.16px" y="1032.38px" style="font-family:'ArialMT', 'Arial', sans-serif;font-size:187.05px;">x</text></g><g id="Window17" serif:id="Window"><path d="M4793.01,1029.07c-0,-32.217 -26.117,-58.334 -58.334,-58.334c-306.6,0 -1729.17,0 -2035.77,0c-32.216,0 -58.333,26.117 -58.333,58.334c0,299.028 0,1657.56 0,1956.59c0,32.216 26.117,58.333 58.333,58.333c306.601,0 1729.17,0 2035.77,0c32.217,0 58.334,-26.117 58.334,-58.333c-0,-299.028 -0,-1657.56 -0,-1956.59Z" style="fill:#eee;stroke:#1a1e29;stroke-width:17.36px;"/><rect x="2640.57" y="1185.58" width="2152.44" height="6.304" style="fill:none;stroke:#1a1e29;stroke-width:5.79px;"/><text x="2716.92px" y="1141.74px" style="font-family:'ArialMT', 'Arial', sans-serif;font-size:187.05px;">x</text></g><g id="Window18" serif:id="Window"><path d="M4900.96,1133.75c-0.001,-32.217 -26.117,-58.333 -58.334,-58.333c-306.601,-0 -1729.17,-0 -2035.77,-0c-32.216,-0 -58.333,26.116 -58.333,58.333c-0,299.028 -0,1657.56 -0,1956.59c-0,32.217 26.117,58.333 58.333,58.333c306.601,0 1729.17,0 2035.77,0c32.217,0 58.333,-26.116 58.334,-58.333c-0,-299.028 -0,-1657.56 -0,-1956.59Z" style="fill:#eee;stroke:#1a1e29;stroke-width:17.36px;"/><rect x="2748.52" y="1290.25" width="2152.44" height="6.304" style="fill:none;stroke:#1a1e29;stroke-width:5.79px;"/><text x="2824.88px" y="1246.41px" style="font-family:'ArialMT', 'Arial', sans-serif;font-size:187.05px;">x</text></g><g id="Window19" serif:id="Window"><path d="M5011.74,1235.52c-0,-32.217 -26.117,-58.334 -58.334,-58.334c-306.6,0 -1729.17,0 -2035.77,0c-32.216,0 -58.333,26.117 -58.333,58.334c0,299.028 0,1657.56 0,1956.59c0,32.216 26.117,58.333 58.333,58.333c306.601,-0 1729.17,-0 2035.77,-0c32.217,0 58.334,-26.117 58.334,-58.333c-0,-299.028 -0,-1657.56 -0,-1956.59Z" style="fill:#eee;stroke:#1a1e29;stroke-width:17.36px;"/><rect x="2859.3" y="1392.02" width="2152.44" height="6.304" style="fill:none;stroke:#1a1e29;stroke-width:5.79px;"/><text x="2935.66px" y="1348.18px" style="font-family:'ArialMT', 'Arial', sans-serif;font-size:187.05px;">x</text></g><g id="Window20" serif:id="Window"><path d="M5119.7,1340.19c-0.001,-32.217 -26.117,-58.334 -58.334,-58.334c-306.601,0 -1729.17,0 -2035.77,0c-32.216,0 -58.333,26.117 -58.333,58.334c-0,299.028 -0,1657.56 -0,1956.59c-0,32.217 26.117,58.333 58.333,58.333c306.601,0 1729.17,0 2035.77,0c32.217,0 58.333,-26.116 58.334,-58.333c-0,-299.028 -0,-1657.56 -0,-1956.59Z" style="fill:#eee;stroke:#1a1e29;stroke-width:17.36px;"/><rect x="2967.26" y="1496.69" width="2152.44" height="6.304" style="fill:none;stroke:#1a1e29;stroke-width:5.79px;"/><text x="3043.62px" y="1452.86px" style="font-family:'ArialMT', 'Arial', sans-serif;font-size:187.05px;">x</text></g><g id="Window21" serif:id="Window"><path d="M5238.01,1437.65c-0,-32.216 -26.117,-58.333 -58.334,-58.333c-306.601,-0 -1729.17,-0 -2035.77,-0c-32.216,-0 -58.333,26.117 -58.333,58.333c0,299.028 0,1657.56 0,1956.59c0,32.217 26.117,58.334 58.333,58.334c306.601,-0 1729.17,-0 2035.77,-0c32.217,-0 58.334,-26.117 58.334,-58.334c-0,-299.028 -0,-1657.56 -0,-1956.59Z" style="fill:#eee;stroke:#1a1e29;stroke-width:17.36px;"/><rect x="3085.57" y="1594.16" width="2152.44" height="6.304" style="fill:none;stroke:#1a1e29;stroke-width:5.79px;"/><text x="3161.93px" y="1550.32px" style="font-family:'ArialMT', 'Arial', sans-serif;font-size:187.05px;">x</text></g><g id="Window22" serif:id="Window"><path d="M5345.97,1542.33c0,-32.216 -26.116,-58.333 -58.333,-58.333c-306.601,0 -1729.17,0 -2035.77,0c-32.216,0 -58.333,26.117 -58.333,58.333c-0,299.028 -0,1657.56 -0,1956.59c-0,32.217 26.117,58.334 58.333,58.334c306.601,-0 1729.17,-0 2035.77,-0c32.217,-0 58.333,-26.117 58.333,-58.334c0,-299.028 0,-1657.56 0,-1956.59Z" style="fill:#eee;stroke:#1a1e29;stroke-width:17.36px;"/><rect x="3193.53" y="1698.83" width="2152.44" height="6.304" style="fill:none;stroke:#1a1e29;stroke-width:5.79px;"/><text x="3269.89px" y="1655px" style="font-family:'ArialMT', 'Arial', sans-serif;font-size:187.05px;">x</text></g><g id="Window23" serif:id="Window"><path d="M5456.75,1644.1c-0,-32.217 -26.117,-58.333 -58.334,-58.333c-306.601,-0 -1729.17,-0 -2035.77,-0c-32.216,-0 -58.333,26.116 -58.333,58.333c0,299.028 0,1657.56 0,1956.59c0,32.217 26.117,58.334 58.333,58.333c306.601,0 1729.17,0 2035.77,0c32.217,0.001 58.334,-26.116 58.334,-58.333c-0,-299.028 -0,-1657.56 -0,-1956.59Z" style="fill:#eee;stroke:#1a1e29;stroke-width:17.36px;"/><rect x="3304.31" y="1800.6" width="2152.44" height="6.304" style="fill:none;stroke:#1a1e29;stroke-width:5.79px;"/><text x="3380.67px" y="1756.76px" style="font-family:'ArialMT', 'Arial', sans-serif;font-size:187.05px;">x</text></g><g id="Window24" serif:id="Window"><path d="M5564.71,1748.77c0,-32.216 -26.116,-58.333 -58.333,-58.333c-306.601,-0 -1729.17,-0 -2035.77,-0c-32.216,-0 -58.333,26.117 -58.333,58.333c-0,299.028 -0,1657.56 -0,1956.59c-0,32.217 26.117,58.334 58.333,58.334c306.601,-0 1729.17,-0 2035.77,-0c32.217,-0 58.333,-26.117 58.333,-58.334c0,-299.028 0,-1657.56 0,-1956.59Z" style="fill:#eee;stroke:#1a1e29;stroke-width:17.36px;"/><rect x="3412.27" y="1905.28" width="2152.44" height="6.304" style="fill:none;stroke:#1a1e29;stroke-width:5.79px;"/><text x="3488.63px" y="1861.44px" style="font-family:'ArialMT', 'Arial', sans-serif;font-size:187.05px;">x</text></g><g id="Window25" serif:id="Window"><path d="M5685.68,1851.67c0,-32.216 -26.116,-58.333 -58.333,-58.333c-306.601,-0 -1729.17,-0 -2035.77,-0c-32.217,-0 -58.333,26.117 -58.333,58.333c-0,299.028 -0,1657.56 -0,1956.59c-0,32.217 26.116,58.334 58.333,58.334c306.601,-0 1729.17,-0 2035.77,-0c32.217,-0 58.333,-26.117 58.333,-58.334c0,-299.028 0,-1657.56 0,-1956.59Z" style="fill:#eee;stroke:#1a1e29;stroke-width:17.36px;"/><rect x="3533.24" y="2008.17" width="2152.44" height="6.304" style="fill:none;stroke:#1a1e29;stroke-width:5.79px;"/><text x="3609.59px" y="1964.33px" style="font-family:'ArialMT', 'Arial', sans-serif;font-size:187.05px;">x</text></g><g id="Window26" serif:id="Window"><path d="M5793.63,1956.34c0,-32.216 -26.117,-58.333 -58.333,-58.333c-306.601,0 -1729.17,0 -2035.77,0c-32.217,0 -58.334,26.117 -58.334,58.333c0,299.028 0,1657.56 0,1956.59c0,32.216 26.117,58.333 58.334,58.333c306.601,-0 1729.17,-0 2035.77,-0c32.216,-0 58.333,-26.117 58.333,-58.333c0,-299.028 0,-1657.56 0,-1956.59Z" style="fill:#eee;stroke:#1a1e29;stroke-width:17.36px;"/><rect x="3641.19" y="2112.85" width="2152.44" height="6.304" style="fill:none;stroke:#1a1e29;stroke-width:5.79px;"/><text x="3717.55px" y="2069.01px" style="font-family:'ArialMT', 'Arial', sans-serif;font-size:187.05px;">x</text></g><g id="Window27" serif:id="Window"><path d="M5904.41,2058.11c0,-32.216 -26.116,-58.333 -58.333,-58.333c-306.601,-0 -1729.17,-0 -2035.77,-0c-32.217,-0 -58.333,26.117 -58.333,58.333c-0,299.028 -0,1657.56 -0,1956.59c-0,32.217 26.116,58.334 58.333,58.334c306.601,-0 1729.17,-0 2035.77,-0c32.217,-0 58.333,-26.117 58.333,-58.334c0,-299.028 0,-1657.56 0,-1956.59Z" style="fill:#eee;stroke:#1a1e29;stroke-width:17.36px;"/><rect x="3751.97" y="2214.61" width="2152.44" height="6.304" style="fill:none;stroke:#1a1e29;stroke-width:5.79px;"/><text x="3828.33px" y="2170.77px" style="font-family:'ArialMT', 'Arial', sans-serif;font-size:187.05px;">x</text></g><g id="Window28" serif:id="Window"><path d="M6012.37,2162.79c0,-32.216 -26.117,-58.333 -58.333,-58.333c-306.601,0 -1729.17,0 -2035.77,0c-32.217,0 -58.334,26.117 -58.334,58.333c0,299.028 0,1657.56 0,1956.59c0,32.217 26.117,58.334 58.334,58.334c306.601,-0 1729.17,-0 2035.77,-0c32.216,-0 58.333,-26.117 58.333,-58.334c0,-299.028 0,-1657.56 0,-1956.59Z" style="fill:#eee;stroke:#1a1e29;stroke-width:17.36px;"/><rect x="3859.93" y="2319.29" width="2152.44" height="6.304" style="fill:none;stroke:#1a1e29;stroke-width:5.79px;"/><text x="3936.29px" y="2275.45px" style="font-family:'ArialMT', 'Arial', sans-serif;font-size:187.05px;">x</text></g><g id="Window29" serif:id="Window"><path d="M6195.92,2039.91c0,-32.217 -26.116,-58.334 -58.333,-58.334c-306.601,0 -1729.17,0 -2035.77,0c-32.217,0 -58.333,26.117 -58.333,58.334c-0,299.028 -0,1657.56 -0,1956.59c-0,32.216 26.116,58.333 58.333,58.333c306.601,0 1729.17,0 2035.77,0c32.217,0 58.333,-26.117 58.333,-58.333c0,-299.028 0,-1657.56 0,-1956.59Z" style="fill:#eee;stroke:#1a1e29;stroke-width:17.36px;"/><rect x="4043.48" y="2196.41" width="2152.44" height="6.304" style="fill:none;stroke:#1a1e29;stroke-width:5.79px;"/><text x="4119.84px" y="2152.57px" style="font-family:'ArialMT', 'Arial', sans-serif;font-size:187.05px;">x</text></g><g id="Window30" serif:id="Window"><path d="M6375.77,1922.67c-0,-32.216 -26.117,-58.333 -58.334,-58.333c-306.6,0 -1729.17,0 -2035.77,0c-32.216,0 -58.333,26.117 -58.333,58.333c0,299.028 0,1657.56 0,1956.59c0,32.216 26.117,58.333 58.333,58.333c306.601,-0 1729.17,-0 2035.77,-0c32.217,-0 58.334,-26.117 58.334,-58.333c-0,-299.028 -0,-1657.56 -0,-1956.59Z" style="fill:#eee;stroke:#1a1e29;stroke-width:17.36px;"/><rect x="4223.33" y="2079.18" width="2152.44" height="6.304" style="fill:none;stroke:#1a1e29;stroke-width:5.79px;"/><text x="4299.69px" y="2035.34px" style="font-family:'ArialMT', 'Arial', sans-serif;font-size:187.05px;">x</text></g><g id="Window31" serif:id="Window"><path d="M6553.26,1832.01c0,-32.216 -26.117,-58.333 -58.333,-58.333c-306.601,0 -1729.17,0 -2035.77,0c-32.217,0 -58.333,26.117 -58.333,58.333c-0,299.028 -0,1657.56 -0,1956.59c-0,32.217 26.116,58.334 58.333,58.334c306.601,-0 1729.17,-0 2035.77,-0c32.216,-0 58.333,-26.117 58.333,-58.334c0,-299.028 0,-1657.56 0,-1956.59Z" style="fill:#eee;stroke:#1a1e29;stroke-width:17.36px;"/><rect x="4400.82" y="1988.51" width="2152.44" height="6.304" style="fill:none;stroke:#1a1e29;stroke-width:5.79px;"/><text x="4477.18px" y="1944.67px" style="font-family:'ArialMT', 'Arial', sans-serif;font-size:187.05px;">x</text></g><g id="Window32" serif:id="Window"><path d="M6736.81,1709.13c0,-32.217 -26.116,-58.334 -58.333,-58.334c-306.601,0 -1729.17,0 -2035.77,0c-32.216,0 -58.333,26.117 -58.333,58.334c-0,299.028 -0,1657.56 -0,1956.59c-0,32.216 26.117,58.333 58.333,58.333c306.601,0 1729.17,0 2035.77,0c32.217,0 58.333,-26.117 58.333,-58.333c0,-299.028 0,-1657.56 0,-1956.59Z" style="fill:#eee;stroke:#1a1e29;stroke-width:17.36px;"/><rect x="4584.37" y="1865.63" width="2152.44" height="6.304" style="fill:none;stroke:#1a1e29;stroke-width:5.79px;"/><text x="4660.73px" y="1821.79px" style="font-family:'ArialMT', 'Arial', sans-serif;font-size:187.05px;">x</text></g><g id="Window33" serif:id="Window"><path d="M6916.66,1591.9c-0,-32.216 -26.117,-58.333 -58.333,-58.333c-306.601,0 -1729.17,0 -2035.77,0c-32.217,0 -58.334,26.117 -58.334,58.333c0,299.029 0,1657.56 0,1956.59c0,32.216 26.117,58.333 58.334,58.333c306.6,-0 1729.17,-0 2035.77,-0c32.216,-0 58.333,-26.117 58.333,-58.333c-0,-299.028 -0,-1657.56 -0,-1956.59Z" style="fill:#eee;stroke:#1a1e29;stroke-width:17.36px;"/><rect x="4764.22" y="1748.4" width="2152.44" height="6.304" style="fill:none;stroke:#1a1e29;stroke-width:5.79px;"/><text x="4840.58px" y="1704.56px" style="font-family:'ArialMT', 'Arial', sans-serif;font-size:187.05px;">x</text></g><g id="Window34" serif:id="Window"><path d="M7088.59,1478.65c-0,-32.217 -26.117,-58.334 -58.333,-58.334c-306.601,0 -1729.17,0 -2035.77,0c-32.217,0 -58.334,26.117 -58.334,58.334c0,299.028 0,1657.56 0,1956.59c0,32.216 26.117,58.333 58.334,58.333c306.6,-0 1729.17,-0 2035.77,-0c32.216,0 58.333,-26.117 58.333,-58.333c-0,-299.028 -0,-1657.56 -0,-1956.59Z" style="fill:#eee;stroke:#1a1e29;stroke-width:17.36px;"/><rect x="4936.15" y="1635.15" width="2152.44" height="6.304" style="fill:none;stroke:#1a1e29;stroke-width:5.79px;"/><text x="5012.51px" y="1591.31px" style="font-family:'ArialMT', 'Arial', sans-serif;font-size:187.05px;">x</text></g><g id="Window35" serif:id="Window"><path d="M7266.08,1387.98c0,-32.216 -26.116,-58.333 -58.333,-58.333c-306.601,0 -1729.17,0 -2035.77,0c-32.217,0 -58.333,26.117 -58.333,58.333c-0,299.029 -0,1657.56 -0,1956.59c-0,32.216 26.116,58.333 58.333,58.333c306.601,-0 1729.17,-0 2035.77,-0c32.217,-0 58.333,-26.117 58.333,-58.333c0,-299.028 0,-1657.56 0,-1956.59Z" style="fill:#eee;stroke:#1a1e29;stroke-width:17.36px;"/><rect x="5113.64" y="1544.48" width="2152.44" height="6.304" style="fill:none;stroke:#1a1e29;stroke-width:5.79px;"/><text x="5190px" y="1500.64px" style="font-family:'ArialMT', 'Arial', sans-serif;font-size:187.05px;">x</text></g><g id="Window36" serif:id="Window"><path d="M7449.63,1265.1c-0,-32.217 -26.117,-58.334 -58.334,-58.334c-306.601,0 -1729.17,0 -2035.77,0c-32.216,0 -58.333,26.117 -58.333,58.334c-0,299.028 -0,1657.56 -0,1956.59c-0,32.217 26.117,58.333 58.333,58.333c306.601,0 1729.17,0 2035.77,0c32.217,0 58.334,-26.116 58.334,-58.333c-0,-299.028 -0,-1657.56 -0,-1956.59Z" style="fill:#eee;stroke:#1a1e29;stroke-width:17.36px;"/><rect x="5297.19" y="1421.6" width="2152.44" height="6.304" style="fill:none;stroke:#1a1e29;stroke-width:5.79px;"/><text x="5373.55px" y="1377.76px" style="font-family:'ArialMT', 'Arial', sans-serif;font-size:187.05px;">x</text></g><g id="Window37" serif:id="Window"><path d="M7629.48,1147.87c-0,-32.217 -26.117,-58.334 -58.333,-58.334c-306.601,0 -1729.17,0 -2035.77,0c-32.217,0 -58.334,26.117 -58.334,58.334c0,299.028 0,1657.56 0,1956.59c0,32.216 26.117,58.333 58.334,58.333c306.601,0 1729.17,0 2035.77,0c32.216,0 58.333,-26.117 58.333,-58.333c0,-299.028 0,-1657.56 0,-1956.59Z" style="fill:#eee;stroke:#1a1e29;stroke-width:17.36px;"/><rect x="5477.04" y="1304.37" width="2152.44" height="6.304" style="fill:none;stroke:#1a1e29;stroke-width:5.79px;"/><text x="5553.4px" y="1260.53px" style="font-family:'ArialMT', 'Arial', sans-serif;font-size:187.05px;">x</text></g></svg>